G04 start of page 3 for group 5 idx 5 *
G04 Title: (unknown), bottom *
G04 Creator: pcb v4.0.2-g2d695f8b *
G04 CreationDate: Sat Jan 27 08:31:28 2018 UTC *
G04 For: zhenke *
G04 Format: Gerber/RS-274X *
G04 PCB-Dimensions (mil): 7480.31 7283.46 *
G04 PCB-Coordinate-Origin: lower left *
%MOIN*%
%FSLAX25Y25*%
%LNBOTTOM*%
%ADD39C,0.0430*%
%ADD38C,0.0380*%
%ADD37C,0.0420*%
%ADD36C,0.0280*%
%ADD35C,0.1180*%
%ADD34C,0.0350*%
%ADD33C,0.0850*%
%ADD32C,0.0980*%
%ADD31C,0.1000*%
%ADD30C,0.0750*%
%ADD29C,0.0900*%
%ADD28C,0.0800*%
%ADD27C,0.0001*%
%ADD26C,0.0300*%
%ADD25C,0.0400*%
G54D25*X16000Y650846D02*X21000Y655846D01*
X16000Y650846D02*Y40846D01*
X105000Y419846D02*Y411846D01*
X49000Y419846D02*X87000D01*
X27000D02*X41000D01*
X105000Y219846D02*Y211846D01*
Y119846D02*Y111846D01*
X77000Y56846D02*Y44846D01*
X52000Y82846D02*Y69846D01*
X48000Y119846D02*X84000D01*
X27000D02*X40000D01*
X49000Y219846D02*X85000D01*
X49000Y319846D02*X86000D01*
X27000D02*X41000D01*
X27000Y219846D02*X41000D01*
X113000Y419846D02*X127000D01*
X162000Y373846D02*Y362346D01*
Y378846D02*Y370346D01*
Y378846D02*X148000Y392846D01*
X152000Y441846D02*Y432346D01*
X162000D02*Y413846D01*
X142000Y432346D02*Y421846D01*
X127000Y379846D02*X139500D01*
X142000Y232346D02*Y218846D01*
X152000Y242346D02*Y232346D01*
X113000Y219846D02*X127000D01*
X142000Y262346D02*Y252346D01*
X152000Y266846D02*X139000Y279846D01*
X152000Y266846D02*Y262346D01*
X132500Y252346D02*X132000Y252846D01*
X132500Y252346D02*X147000D01*
X127000Y279846D02*X139500D01*
X124000Y192846D02*X105000Y211846D01*
X124000Y192846D02*X148000D01*
X162000Y178846D02*X148000Y192846D01*
X162000Y178846D02*Y170346D01*
X124500Y179846D02*X137000D01*
X152000Y164846D02*X137000Y179846D01*
X113000Y119846D02*X127000D01*
X124000Y92846D02*X105000Y111846D01*
X124000Y92846D02*X148000D01*
X122000Y82846D02*X140000D01*
X162000Y78846D02*X148000Y92846D01*
X152000Y142346D02*Y132346D01*
X142000D02*Y121846D01*
Y162346D02*Y152346D01*
X162000Y132346D02*Y114846D01*
X152000Y164846D02*Y162346D01*
X162000Y78846D02*Y70346D01*
X142000D02*Y60846D01*
X131500Y60346D02*X130000Y61846D01*
X84000Y119846D02*X121000Y82846D01*
X85000Y219846D02*X125000Y179846D01*
X124000Y392846D02*X105000Y411846D01*
X87000Y419846D02*X127000Y379846D01*
X124000Y392846D02*X148000D01*
X113000Y319846D02*X127000D01*
X105000D02*Y311846D01*
X124000Y292846D02*X105000Y311846D01*
X124000Y292846D02*X148000D01*
X86000Y319846D02*X126000Y279846D01*
X162000Y316346D02*Y311346D01*
X152000Y341846D02*X151000Y342846D01*
X152000Y341846D02*Y332346D01*
X113000Y519846D02*X127000D01*
X89000D02*X127000Y481846D01*
X160000Y632846D02*Y622846D01*
X140000Y623846D02*X152000Y611846D01*
X128000Y580846D02*X140500D01*
X162000Y473846D02*Y462346D01*
Y478846D02*X148000Y492846D01*
X162000Y478846D02*Y470346D01*
X134500Y451346D02*X147000D01*
X141500Y461346D02*Y451346D01*
X128000Y480846D02*X140500D01*
X142000Y532346D02*Y521846D01*
X162000Y532346D02*Y513846D01*
X172000Y89846D02*Y70346D01*
X182000Y132346D02*Y121846D01*
X172000Y132346D02*Y114846D01*
X192000Y109846D02*X174500Y92346D01*
X195750Y101096D02*X184500Y89846D01*
X182000Y87346D02*X185250Y90596D01*
X182000Y87346D02*Y70346D01*
X192000Y87346D02*Y70346D01*
X202000Y79846D02*X205000Y82846D01*
X202000Y79846D02*Y70346D01*
X204500Y82346D02*X207000Y84846D01*
X212000Y141346D02*X211000Y142346D01*
X192000Y109846D02*X244500D01*
X195750Y101096D02*X238250D01*
X192000Y132346D02*Y122346D01*
X212000Y74846D02*X214500Y77346D01*
X116000Y50846D02*X416000D01*
X131000Y60846D02*X411000D01*
X172000Y89846D02*X176500Y94346D01*
X234500Y101096D02*X268250D01*
X324500Y94846D02*X349500Y119846D01*
X227000Y68846D02*X354500D01*
X214500Y77346D02*X349500D01*
X207000Y84846D02*X339500D01*
X349000Y77346D02*X349500D01*
X339000Y84846D02*X363250Y109096D01*
X349500Y77346D02*X365750Y93596D01*
X369500Y97346D02*X366250Y94096D01*
X224000Y39846D02*X440000D01*
X439000Y73846D02*X416000Y50846D01*
X411000Y60846D02*X431000Y80846D01*
X412500Y62346D02*X433000Y82846D01*
X374000Y88846D02*X355000Y69846D01*
X374000Y88846D02*X378000D01*
X377737D02*X426000D01*
X427250Y109096D02*X363250D01*
X426000Y97346D02*X369500D01*
X427000Y109096D02*X428250D01*
X13250Y142346D02*X235500D01*
X131500Y152346D02*X131000Y152846D01*
X131500Y152346D02*X144000D01*
X202000Y132346D02*Y122846D01*
X27000Y19846D02*X40000D01*
X24500Y32346D02*X13250Y43596D01*
X24500Y32346D02*X97000D01*
X50500Y19846D02*X60000D01*
X94000D02*X105000D01*
X142000Y82846D02*X152000Y72846D01*
Y70346D01*
X142000Y40346D02*Y28846D01*
Y32346D02*Y24846D01*
X113000Y19846D02*X127000D01*
X202000Y40346D02*Y29846D01*
X192000Y27346D02*X197000Y22346D01*
X182000Y37346D02*Y26846D01*
X172000Y22346D02*X180500Y13846D01*
X172000Y40346D02*Y22346D01*
X180500Y13846D02*X179250Y15096D01*
X182000Y40346D02*Y30846D01*
X162000Y40346D02*Y30846D01*
X180500Y13846D02*X208000D01*
X211500Y17346D02*X208000Y13846D01*
X197750Y21596D02*X205750D01*
X212000Y17846D02*X224000Y29846D01*
X205750Y21596D02*X224000Y39846D01*
X191750Y37596D02*Y27596D01*
X249000Y19846D02*X259000D01*
X227000D02*X241000D01*
X50000Y619846D02*X89000D01*
X50000Y519846D02*X89000D01*
X27000Y619846D02*X42000D01*
X27000Y519846D02*X42000D01*
X162000Y573846D02*Y562346D01*
Y578846D02*X148000Y592846D01*
X162000Y578846D02*Y570346D01*
X131500Y553346D02*X131000Y553846D01*
X131500Y553346D02*X144000D01*
X113000Y619846D02*X127000D01*
X89000D02*X128000Y580846D01*
X150000Y655846D02*Y646346D01*
X160000D02*Y635846D01*
X192000Y384846D02*X200000Y392846D01*
X13250Y441846D02*X227000D01*
X212000D02*Y432346D01*
X131500Y353346D02*X131000Y353846D01*
X13500Y242346D02*X15000D01*
X13250Y45096D02*X13000Y634846D01*
X124000Y82846D02*X142000D01*
X116000Y50846D02*X97500Y32346D01*
X131500Y353346D02*X143500D01*
X13250Y342846D02*X225000D01*
X191750Y37596D02*X192000Y37846D01*
Y40346D02*Y35346D01*
X212000Y50346D02*Y40346D01*
X152000Y50346D02*Y40346D01*
X202000Y570846D02*Y562346D01*
X214500Y269846D02*X219500Y274846D01*
X204500Y282346D02*X207000Y284846D01*
X224750Y629596D02*X207000Y611846D01*
X173250Y627596D02*X202750D01*
X203500Y628346D01*
X174250Y627596D02*X172750D01*
X170000Y630346D01*
X199500Y494846D02*X195500Y490846D01*
X195000Y589846D02*X251000D01*
X192000Y586846D02*X195000Y589846D01*
X192000Y586846D02*Y562346D01*
X196750Y502096D02*X239250D01*
X199500Y494846D02*X201000D01*
X427000Y497846D02*X424000Y494846D01*
X427000Y498846D02*Y497846D01*
X287750Y519846D02*X270000Y502096D01*
X287750Y519846D02*X308000D01*
X427000D02*Y506846D01*
X235500Y502096D02*X269250D01*
X208000Y485846D02*X415500D01*
X269000Y607846D02*X343000D01*
X251000Y589846D02*X269000Y607846D01*
X336000D02*X395000D01*
X406500Y619346D02*X395000Y607846D01*
X388000Y617846D02*X396000Y625846D01*
X406500Y619346D02*X408000D01*
X406000Y646846D02*Y636846D01*
X396000Y646846D02*Y625846D01*
X356000Y655846D02*Y646846D01*
X345000Y635846D02*X335000Y645846D01*
X345000Y635846D02*X373000D01*
X224750Y629596D02*X331000Y629846D01*
X221000Y645346D02*X335000Y645846D01*
X343000Y617846D02*X354000D01*
X376000Y646846D02*Y638846D01*
X373000Y635846D02*X376000Y638846D01*
X353000Y617846D02*X388000D01*
X416000Y655846D02*Y646846D01*
X182000Y432346D02*Y421846D01*
X172000Y432346D02*Y413846D01*
X192000Y432346D02*Y421846D01*
X182000Y532346D02*Y521846D01*
X172000Y532346D02*Y513846D01*
X192000Y532346D02*Y521846D01*
X196750Y502096D02*X185500Y490846D01*
X234500Y401096D02*X268250D01*
X195750D02*X238250D01*
X207000Y384846D02*X414500D01*
X207000Y284846D02*X414500D01*
X324500Y294846D02*X349500Y319846D01*
X206000Y185846D02*X413500D01*
X350000Y19846D02*X360000D01*
X327000D02*X342000D01*
X224000Y342846D02*X227000D01*
X212000Y541846D02*Y532346D01*
Y74846D02*X212500Y75346D01*
X212000Y74846D02*Y70346D01*
Y141346D02*Y132346D01*
Y342846D02*Y332346D01*
X192000Y384846D02*Y362346D01*
X142000Y332346D02*Y318846D01*
Y362346D02*Y353346D01*
X195750Y401096D02*X184500Y389846D01*
X204500Y382346D02*X207000Y384846D01*
X182000Y332346D02*Y318846D01*
X234500Y301096D02*X268250D01*
X195750D02*X184500Y289846D01*
X195750Y301096D02*X238250D01*
X202000Y570846D02*X214000Y582846D01*
X190000Y646346D02*Y635846D01*
X180000Y646346D02*Y635846D01*
X170000Y646346D02*Y633846D01*
X210000Y655846D02*Y646346D01*
X223000Y637846D02*X205000Y619846D01*
X220000Y644846D02*X203000Y627846D01*
X117000Y242346D02*X236000D01*
X15750D02*X122000D01*
X192000Y285846D02*X199000Y292846D01*
X192000Y285846D02*Y262346D01*
X182000Y287346D02*X185750Y291096D01*
X182000Y287346D02*Y262346D01*
X202000Y279846D02*X206000Y283846D01*
X202000Y279846D02*Y262346D01*
X172000Y291846D02*Y262346D01*
X162000Y273846D02*Y262346D01*
Y278846D02*X148000Y292846D01*
X162000Y278846D02*Y270346D01*
X235500Y142346D02*X236000Y141846D01*
X192000Y87346D02*X197250Y92596D01*
X322250D02*X329750Y100096D01*
X314000Y119846D02*X327000D01*
X287500D02*X306000D01*
X197250Y92596D02*X322250D01*
X287500Y119846D02*X268750Y101096D01*
X227000Y119846D02*X241000D01*
X249000D02*Y112846D01*
X246000Y109846D02*X249000Y112846D01*
X245000Y109846D02*X246000D01*
X218500Y175846D02*X212000Y169346D01*
Y162346D01*
Y267346D02*X214000Y269346D01*
X212000Y267346D02*Y262346D01*
Y242346D02*Y232346D01*
X226000Y163346D02*X238500D01*
X202000Y232346D02*Y219846D01*
X192000Y232346D02*Y218846D01*
X182000Y189346D02*X185000Y192346D01*
X182000Y189346D02*Y162346D01*
X172000Y191846D02*X190000Y209846D01*
X172000Y191846D02*Y162346D01*
X162000Y173846D02*Y162346D01*
X182000Y232346D02*Y218846D01*
X172000Y232346D02*Y211346D01*
X162000Y232346D02*Y211346D01*
X195750Y203096D02*X184500Y191846D01*
X192000Y189346D02*X194750Y192096D01*
X192000Y189346D02*Y162346D01*
X206000Y185846D02*X202000Y181846D01*
Y162346D01*
X193500Y190846D02*X198500Y195846D01*
X315000Y219846D02*X327000D01*
X285000D02*X268250Y203096D01*
X285000Y219846D02*X307000D01*
X234500Y203096D02*X268250D01*
X198500Y195846D02*X323500D01*
X227000Y219846D02*X241000D01*
X190000Y209846D02*X246000D01*
X195750Y203096D02*X238250D01*
X249000Y219846D02*Y212846D01*
X246000Y209846D02*X249000Y212846D01*
X227000Y262346D02*X239500D01*
X735500Y650346D02*X731000Y654846D01*
X735500Y650346D02*X736500D01*
Y654346D02*X736000Y654846D01*
X653000Y619846D02*X706000D01*
X714000Y719846D02*X727000D01*
X653000D02*X706000D01*
X691000Y669846D02*X702000D01*
X666000Y694846D02*X677000D01*
X660000Y665846D02*X664000Y661846D01*
X662000Y663846D02*X663000Y662846D01*
X662000Y663846D02*X671000Y654846D01*
X591000Y720846D02*X600000D01*
X557000Y686846D02*X591000Y720846D01*
X611000D02*X627000D01*
X601000D02*X603000D01*
X627000Y719846D02*Y718846D01*
X515000Y619846D02*X527000D01*
X611000D02*X627000D01*
X653000Y719846D02*X608000Y674846D01*
X609000Y675846D01*
X443000Y674846D02*X442000D01*
X442500D02*X608000D01*
X736500Y654346D02*Y59346D01*
X738745Y352346D02*X739245Y351846D01*
X734000Y352346D02*X738745D01*
X732000Y553346D02*X738917D01*
X714000Y319846D02*X727000D01*
X737500Y654846D02*X739500Y652846D01*
X718000Y31846D02*X721500Y35346D01*
X727000D01*
X733000Y56846D02*X738500Y62346D01*
X735000Y57846D02*X738500Y61346D01*
X709500Y52346D02*Y32346D01*
X739000Y62846D02*X739500Y652346D01*
X598000Y363846D02*X654000Y419846D01*
X549000D02*X603000D01*
X611000D02*X627000D01*
X654500D02*X706000D01*
X515000Y519846D02*X527000D01*
X611000D02*X627000D01*
X550000D02*X603000D01*
X655000D02*X706000D01*
X653000Y619846D02*X616000Y582846D01*
X655000Y519846D02*X598500Y463346D01*
X714000Y619846D02*X727000D01*
X714000Y419846D02*X727000D01*
X714000Y519846D02*X727000D01*
X739159Y451346D02*X739330Y451516D01*
X734000Y451346D02*X739159D01*
X738917Y553346D02*X739417Y553846D01*
X671000Y654846D02*X737500D01*
X464500Y105346D02*X464000Y105846D01*
X464500Y105346D02*Y94846D01*
X454500Y105346D02*X454000Y105846D01*
X454500Y105346D02*Y94846D01*
X457000Y127846D02*X456500D01*
X494250Y64596D02*X494500Y64846D01*
X526746Y140101D02*X527000Y139846D01*
X459246Y140101D02*X526746D01*
X458754D02*Y139601D01*
X444500Y85846D02*X445500Y84846D01*
X444500Y94846D02*Y85846D01*
X464250Y64596D02*X464500Y64846D01*
X474250Y64596D02*X474500Y64846D01*
G54D26*X429250Y109096D02*X459000Y139846D01*
G54D25*X456500Y127846D02*X426500Y97846D01*
X458754Y139601D02*X428250Y109096D01*
X584500Y68346D02*X586000Y69846D01*
X564500Y79846D02*X597000D01*
X604500Y72346D02*X597000Y79846D01*
X604500Y72346D02*Y54846D01*
X594500Y44846D02*X604500Y54846D01*
X567000Y69846D02*X584500D01*
X672500Y56846D02*X733000D01*
X659500Y69846D02*X672000Y57346D01*
X604500Y69846D02*X659500D01*
X414000Y485846D02*X440000D01*
X474000Y519846D02*X440000Y485846D01*
X474000Y519846D02*X507000D01*
X550000D02*X506000Y475846D01*
X515000Y419846D02*X527000D01*
X549000D02*X504000Y374846D01*
X718000Y31846D02*Y9846D01*
X709500Y56346D02*X709000Y56846D01*
X709500Y56346D02*Y50346D01*
X644500Y32346D02*Y17346D01*
X709500Y34346D02*Y19846D01*
X684500D02*X699500D01*
X563000Y32846D02*Y25846D01*
X553000Y26346D02*Y25846D01*
X573000Y35846D02*Y25846D01*
X584000Y69846D02*Y26846D01*
Y24846D02*X583000Y25846D01*
X584000Y24846D02*Y15846D01*
X586000Y13846D02*X584000Y15846D01*
X593000Y43346D02*Y25846D01*
X586000Y13846D02*X603000D01*
X610000Y20846D02*X603000Y13846D01*
X610000Y45846D02*Y20846D01*
X714500Y6346D02*X718000Y9846D01*
X627000Y31846D02*Y19846D01*
X506500Y6346D02*X714500D01*
X550000Y319846D02*X505000Y274846D01*
X550000Y319846D02*X603000D01*
X685000Y198846D02*X691000D01*
X669000D02*X675000D01*
X611000Y319846D02*X627000D01*
X452000Y113846D02*X507500D01*
X449000Y110846D02*X452000Y113846D01*
X454500Y73346D02*X454000Y73846D01*
X454500Y73346D02*Y63846D01*
X552000Y94846D02*X562000D01*
X541000Y28846D02*X544000Y25846D01*
X553000D01*
X494250Y64596D02*Y54846D01*
X514500Y73346D02*X514000Y73846D01*
X514500Y73346D02*Y63846D01*
X516500Y104846D02*X507500Y113846D01*
X515500Y94846D02*X537000D01*
X504500Y103346D02*X505000Y103846D01*
X504500Y103346D02*Y93846D01*
X516500Y104846D02*X521000D01*
X481500Y28846D02*X481000Y28346D01*
X481500Y18596D02*X469000Y6096D01*
X481500Y27846D02*Y18596D01*
X472000Y9846D02*X468250Y6096D01*
X481500Y28846D02*X541000D01*
X507000Y5846D02*X504000Y8846D01*
X515000Y19846D02*X527000D01*
X497000D02*X507000D01*
X506000D02*X507000D01*
X482000Y27346D02*X479750Y29596D01*
X453000Y33846D02*X449000Y29846D01*
X451000Y19846D02*X462000D01*
X479500Y29846D02*X473250Y36096D01*
X627000Y49846D02*Y39846D01*
X563000Y33846D02*X559000Y37846D01*
X563000Y33846D02*Y31846D01*
X548000Y119846D02*X603000D01*
X611000D02*X627000D01*
X349500D02*X343250Y113596D01*
X349500Y119846D02*X407000D01*
X415000D02*X427000D01*
X527000Y131846D02*Y119846D01*
X406750Y220096D02*X407000Y219846D01*
X347750Y220096D02*X406750D01*
X347500Y219846D02*X324000Y196346D01*
X347500Y219846D02*X339250Y211596D01*
X349500Y319846D02*X345500Y315846D01*
X227000Y363846D02*X598000D01*
X219500Y374846D02*X504500D01*
X415000Y419846D02*X427000D01*
X449500D02*X414500Y384846D01*
X349500Y419846D02*X348250Y418596D01*
X349500Y419846D02*X407000D01*
X449500D02*X507000D01*
X515000Y319846D02*X527000D01*
X450000D02*X507000D01*
X141500Y451346D02*X735500D01*
X238000Y463346D02*X598000D01*
X220500Y475846D02*X505500D01*
X141500Y353346D02*X735500D01*
X415000Y219846D02*X427000D01*
X447500D02*X413500Y185846D01*
X447500Y219846D02*X507000D01*
X144500Y252346D02*X738500D01*
X237000Y262346D02*X597000D01*
X219500Y274846D02*X504500D01*
X415000Y319846D02*X427000D01*
X450000D02*X415000Y284846D01*
X349500Y319846D02*X407000D01*
X515000Y219846D02*X527000D01*
X547000D02*X503000Y175846D01*
X547000Y219846D02*X603000D01*
X611000D02*X627000D01*
X653000D02*X596500Y163346D01*
X653000Y219846D02*X706000D01*
X654000Y319846D02*X596500Y262346D01*
X654000Y319846D02*X706000D01*
X484000Y63346D02*X484500Y63846D01*
X504963Y127846D02*X506481Y126328D01*
X458000Y127846D02*X504963D01*
X448500Y110346D02*X427000Y88846D01*
X484000Y63346D02*Y51846D01*
X439000Y73846D02*X540000D01*
X539143Y110989D02*X548000Y119846D01*
X523000Y110989D02*X539143D01*
X522143Y111846D02*X523000Y110989D01*
X522077Y111846D02*X522143D01*
X521000Y112846D02*X507000Y125846D01*
X225000Y29846D02*X449500D01*
X162000Y32346D02*Y12346D01*
X168250Y6096D02*X162000Y12346D01*
X168250Y6096D02*X468250D01*
X427000Y19846D02*X443000D01*
X727000Y27346D02*Y19846D01*
X236000Y163346D02*X596000D01*
X142000Y152346D02*X738500D01*
X218500Y175846D02*X503500D01*
X714000Y219846D02*X727000D01*
X706000Y108846D02*X702000Y104846D01*
X706000Y119846D02*Y108846D01*
X714000Y119846D02*X727000D01*
X698000Y104846D02*X701000D01*
X702000Y80846D02*X701000Y81846D01*
X702000Y80846D02*Y69846D01*
X666000Y44846D02*X677000D01*
X674000Y143846D02*Y113846D01*
X685000Y143846D02*Y113846D01*
X675000Y198687D02*Y176846D01*
X685000Y197846D02*Y176846D01*
X573000Y35846D02*X561000Y47846D01*
X593000Y43346D02*X596750Y47096D01*
X623000Y58846D02*X610000Y45846D01*
X623000Y58846D02*X631000D01*
X644500Y45346D02*X631000Y58846D01*
X644500Y45346D02*Y32846D01*
X544000Y69846D02*X540000Y73846D01*
X544000Y69846D02*X566000D01*
X563000Y79846D02*X559000Y83846D01*
X563000Y79846D02*X568000D01*
X522000Y104846D02*X697000D01*
X453000Y46846D02*Y33846D01*
X445000Y63346D02*X444500Y63846D01*
X445000Y63346D02*Y44846D01*
X440000Y39846D02*X445000Y44846D01*
X475000Y46846D02*Y45846D01*
X474250Y47596D02*X475000Y46846D01*
X464500Y44846D02*X473750Y35596D01*
X474250Y64596D02*Y47596D01*
X464500Y63846D02*Y44846D01*
X474000Y63346D02*X474500Y63846D01*
X474000Y63346D02*Y58846D01*
X483000Y37846D02*X496000D01*
X475000Y45846D02*X483000Y37846D01*
X501250Y47846D02*X494250Y54846D01*
X495000Y37846D02*X559000D01*
X501250Y47846D02*X561000D01*
X436500Y83846D02*X559000D01*
X515500Y94846D02*X514500Y93846D01*
X494500Y105346D02*X494000Y105846D01*
X494500Y105346D02*Y94846D01*
X484500Y105346D02*X484000Y105846D01*
X484500Y105346D02*Y94846D01*
X474500Y105346D02*X474000Y105846D01*
X474500Y105346D02*Y94846D01*
X342000Y627846D02*X332000Y637846D01*
X346000Y676846D02*Y665846D01*
X342000Y627846D02*X366000D01*
X356000Y686846D02*Y676846D01*
X366000Y686846D02*Y676846D01*
X376000Y686846D02*Y676846D01*
X386000Y686846D02*Y676846D01*
X396000Y686846D02*Y676846D01*
X140000Y665846D02*X660000D01*
X191000Y677346D02*X190000Y676346D01*
X200500Y676846D02*X200000Y676346D01*
X200500Y685346D02*Y676846D01*
X219500Y685846D02*X210000Y676346D01*
X219500Y685846D02*X326000D01*
X191000D02*Y677346D01*
X506000Y619846D02*X486000Y599846D01*
X506000Y619846D02*X507000D01*
X572000Y591846D02*X601000Y620846D01*
X342500Y582846D02*X616000D01*
X347000Y591846D02*X572000D01*
X342000Y599846D02*X486000D01*
X139500Y553346D02*X733500D01*
X170000Y689846D02*Y676346D01*
X180500Y676846D02*X180000Y676346D01*
X180500Y686346D02*Y676846D01*
X205000Y710846D02*X180500Y686346D01*
X159000Y677346D02*X160000Y676346D01*
X159000Y707846D02*Y677346D01*
X147000Y719846D02*X159000Y707846D01*
X205000Y710846D02*X298000D01*
X307000Y719846D02*X298000Y710846D01*
X307000Y719846D02*X307500D01*
X207000Y701846D02*X191000Y685846D01*
X210000Y694846D02*X200500Y685346D01*
X207000Y701846D02*X322000D01*
X210000Y694846D02*X325000D01*
X339000Y718846D02*X322000Y701846D01*
X339000Y718846D02*X340000D01*
X340500Y719346D02*X340000Y718846D01*
Y709846D02*X325000Y694846D01*
X342000Y701846D02*X326000Y685846D01*
X347000Y694846D02*X328000Y675846D01*
X442000Y686846D02*X557000D01*
X515500Y719846D02*X527000D01*
X507000D02*X497000Y709846D01*
X507000Y719846D02*X507500D01*
X406000Y686846D02*Y676846D01*
X416000Y686846D02*Y676846D01*
X427000Y701846D02*X442000Y686846D01*
X422000Y701846D02*X427000D01*
X340500Y719346D02*X407000D01*
X340000Y709846D02*X497000D01*
X342000Y701846D02*X421000D01*
X347000Y694846D02*X422500D01*
X442000Y674846D02*X422000Y694846D01*
X343000Y617846D02*X331000Y629846D01*
X268500Y619346D02*X306000D01*
X223000Y637846D02*X332000D01*
X152000Y611846D02*X206000D01*
X163000Y619846D02*X204000D01*
X170000Y635846D02*Y630846D01*
X349500Y419846D02*X322500Y392846D01*
X200000D02*X322500D01*
X182000Y387346D02*X189250Y394596D01*
X315500Y419846D02*X327000D01*
X287750D02*X269000Y401096D01*
X287750Y419846D02*X307500D01*
X236000Y441846D02*X237000Y440846D01*
X225000Y441846D02*X236000D01*
X227500Y463346D02*X227000Y462846D01*
X227500Y463346D02*X238500D01*
X202000Y480846D02*X207000Y485846D01*
X202000Y480846D02*Y462346D01*
X212000Y468846D02*X219000Y475846D01*
X212000Y468846D02*Y462346D01*
X192000Y487346D02*X197750Y493096D01*
X192000Y487346D02*Y462346D01*
X182000Y487346D02*X187000Y492346D01*
X182000Y487346D02*Y462346D01*
Y387346D02*Y362346D01*
X202000Y379846D02*X207000Y384846D01*
X202000Y379846D02*Y362346D01*
X212000Y368846D02*X218000Y374846D01*
X212000Y368846D02*Y362346D01*
X268500Y619346D02*X246000Y596846D01*
X182000Y588346D02*Y562346D01*
X163000Y619846D02*X161000Y621846D01*
X163000Y619846D02*X160000Y622846D01*
X311500Y562346D02*X317000Y567846D01*
X227000Y562346D02*X311500D01*
X334000Y541846D02*Y532846D01*
X316000Y519846D02*X327000D01*
X227000D02*X241000D01*
Y604846D02*X245500Y609346D01*
X184000Y604846D02*X241000D01*
X172000Y592846D02*X184000Y604846D01*
X172000Y592846D02*Y562346D01*
X249000Y619846D02*Y612846D01*
X246000Y609846D02*X249000Y612846D01*
Y519846D02*Y512846D01*
X246000Y509846D02*X249000Y512846D01*
X190000Y509846D02*X246000D01*
X172000Y491846D02*X190000Y509846D01*
X172000Y491846D02*Y462346D01*
X226000Y342846D02*X237000D01*
X227000Y419846D02*X241000D01*
X249000D02*Y412846D01*
X246000Y409846D02*X249000Y412846D01*
X322500Y292846D02*X326500Y296846D01*
X315000Y319846D02*X327000D01*
X286750D02*X307000D01*
X202000Y332346D02*Y319846D01*
X193000Y331346D02*X192000Y332346D01*
X193000Y331346D02*Y317846D01*
X172000Y332346D02*Y311346D01*
X162000Y332346D02*Y318846D01*
X172000Y291846D02*X190000Y309846D01*
Y409846D02*X246000D01*
X172000Y391846D02*X190000Y409846D01*
X172000Y391846D02*Y362346D01*
X199000Y292846D02*X322500D01*
X286750Y319846D02*X268000Y301096D01*
X227000Y319846D02*X240000D01*
X249000D02*Y312846D01*
X246000Y309846D02*X249000Y312846D01*
X190000Y309846D02*X246000D01*
X128000Y592846D02*X148000D01*
X129000Y492846D02*X148000D01*
X105000Y516846D02*X129000Y492846D01*
X105000Y519846D02*Y516846D01*
Y615846D02*X128000Y592846D01*
X105000Y619846D02*Y615846D01*
X152000Y611846D02*X151000Y612846D01*
X152000Y469346D02*X140500Y480846D01*
X152000Y367846D02*X140000Y379846D01*
X152000Y367846D02*Y362346D01*
Y469346D02*Y462346D01*
X328000Y675846D02*X329000Y676846D01*
X199000Y719846D02*X207000D01*
X315500D02*X327000D01*
X215000D02*X227000D01*
X228000Y675846D02*X328000D01*
X140000Y676346D02*Y665846D01*
X314500Y619846D02*X314000Y619346D01*
X129000Y665846D02*X147000D01*
X16000Y655846D02*X431000D01*
X27500Y720346D02*X27000Y719846D01*
X27500Y720346D02*X42000D01*
X415500Y719846D02*X415000Y719346D01*
X415500Y719846D02*X427000D01*
X77000Y694846D02*X90000D01*
X386000Y646846D02*Y635846D01*
X346000Y665846D02*X367000D01*
X13039Y541846D02*X431000D01*
X131500Y451346D02*X131000Y451846D01*
X131500Y451346D02*X136500D01*
X202000Y532346D02*Y520846D01*
Y432346D02*Y421846D01*
X13000Y652846D02*X16000Y655846D01*
X13000Y652846D02*Y634846D01*
X416500Y619846D02*X416000Y619346D01*
X416500Y619846D02*X427000D01*
X199000Y719846D02*X170000Y690846D01*
X150000Y680846D02*Y676346D01*
X127000Y719846D02*X139000D01*
X110500Y720346D02*X115000Y715846D01*
X49000Y720346D02*X110500D01*
X52000Y669846D02*X64000D01*
X150000Y680846D02*X111000Y719846D01*
X212000Y568346D02*X218000Y574346D01*
X212000Y568346D02*Y562346D01*
X141500Y561846D02*X142250Y562596D01*
X142000Y562346D02*Y553346D01*
X314500Y619846D02*X327000D01*
X294000Y599846D02*X341000D01*
X227000Y619846D02*X240000D01*
X190500Y596846D02*X186250Y592596D01*
X190500Y596846D02*X245000D01*
X214000Y582846D02*X277000D01*
X294000Y599846D02*X277000Y582846D01*
X219000Y574346D02*X300500D01*
X332000Y582846D02*X311500Y562346D01*
X332000Y582846D02*X343000D01*
X318000Y591846D02*X301000Y574846D01*
X318000Y591846D02*X348000D01*
X333500Y562346D02*X334000Y562846D01*
X140000Y646346D02*Y623846D01*
X200000Y646346D02*Y635846D01*
X152000Y541846D02*Y532346D01*
X148000Y592846D02*X148500Y592346D01*
X148000Y492846D02*X148500Y492346D01*
X152000Y569346D02*X140500Y580846D01*
X152000Y569346D02*Y562346D01*
X182000Y588346D02*X187000Y593346D01*
X214000Y582846D02*X213500Y582346D01*
X414000Y532846D02*Y519846D01*
X404000Y532846D02*Y519846D01*
X394000Y532846D02*Y519846D01*
X384000Y532846D02*Y519846D01*
X374000Y532846D02*Y519846D01*
X364000Y532846D02*Y519846D01*
X354000Y532846D02*Y519846D01*
X344000Y573846D02*Y562846D01*
X354000Y573846D02*Y562846D01*
X364000Y573846D02*Y562846D01*
X333500Y562346D02*Y553346D01*
X374000Y573846D02*Y562846D01*
X384000Y573846D02*Y562846D01*
X394000Y573846D02*Y562846D01*
X404000Y573846D02*Y562846D01*
X414000Y573846D02*Y562846D01*
X344000Y532846D02*Y519846D01*
X202500Y494846D02*X424000D01*
G54D27*G36*
X208000Y74346D02*Y66346D01*
X216000D01*
Y74346D01*
X208000D01*
G37*
G54D28*X202000Y70346D03*
X192000D03*
X182000D03*
X172000D03*
Y40346D03*
X182000D03*
X162000Y70346D03*
Y40346D03*
X152000Y70346D03*
Y40346D03*
X142000Y70346D03*
Y40346D03*
G54D29*X127000Y19846D03*
G54D28*X192000Y40346D03*
X202000D03*
X212000D03*
G54D29*X227000Y19846D03*
G54D27*G36*
X208000Y166346D02*Y158346D01*
X216000D01*
Y166346D01*
X208000D01*
G37*
G54D28*X202000Y162346D03*
X192000D03*
X182000D03*
X172000D03*
X162000D03*
X152000D03*
X142000D03*
Y132346D03*
X152000D03*
X162000D03*
G54D29*X127000Y119846D03*
G54D28*X172000Y132346D03*
X182000D03*
X192000D03*
X202000D03*
X212000D03*
G54D29*X52000Y69846D03*
X77000Y44846D03*
X27000Y19846D03*
G54D27*G36*
X427250Y545596D02*Y538096D01*
X434750D01*
Y545596D01*
X427250D01*
G37*
G54D30*X431000Y551846D03*
G54D27*G36*
X410000Y566846D02*Y558846D01*
X418000D01*
Y566846D01*
X410000D01*
G37*
G54D28*X404000Y562846D03*
Y532846D03*
X414000D03*
X394000Y562846D03*
Y532846D03*
X384000Y562846D03*
Y532846D03*
X374000Y562846D03*
Y532846D03*
X364000Y562846D03*
Y532846D03*
X354000Y562846D03*
X344000D03*
X334000D03*
Y532846D03*
X344000D03*
X354000D03*
G54D27*G36*
X427250Y669596D02*Y662096D01*
X434750D01*
Y669596D01*
X427250D01*
G37*
G54D29*X527000Y719846D03*
X427000D03*
G54D30*X431000Y655846D03*
G54D27*G36*
X412000Y680846D02*Y672846D01*
X420000D01*
Y680846D01*
X412000D01*
G37*
G54D28*X406000Y676846D03*
Y646846D03*
G54D29*X727000Y519846D03*
G54D31*X627000D03*
G54D29*X527000D03*
X427000D03*
X327000D03*
G54D28*X416000Y646846D03*
G54D29*X727000Y619846D03*
G54D31*X627000D03*
G54D29*X527000D03*
X427000D03*
X702000Y669846D03*
X677000Y694846D03*
X727000Y719846D03*
G54D31*X627000D03*
G54D27*G36*
X569500Y29346D02*Y22346D01*
X576500D01*
Y29346D01*
X569500D01*
G37*
G54D28*X563000Y25846D03*
X553000D03*
G54D27*G36*
X579500Y29346D02*Y22346D01*
X586500D01*
Y29346D01*
X579500D01*
G37*
G54D28*X593000Y25846D03*
G54D29*X527000Y19846D03*
G54D27*G36*
X679600Y24746D02*Y14946D01*
X689400D01*
Y24746D01*
X679600D01*
G37*
G54D32*X644500Y19846D03*
G54D27*G36*
X695750Y23596D02*Y16096D01*
X703250D01*
Y23596D01*
X695750D01*
G37*
G54D33*X709500Y19846D03*
G54D29*X727000D03*
G54D31*X627000D03*
G54D29*X677000Y44846D03*
G54D27*G36*
X545250Y97596D02*Y90096D01*
X552750D01*
Y97596D01*
X545250D01*
G37*
G54D30*X549000Y83846D03*
G54D29*X527000Y319846D03*
Y219846D03*
Y119846D03*
G54D27*G36*
X680500Y132846D02*Y124846D01*
X688500D01*
Y132846D01*
X680500D01*
G37*
G54D29*X727000Y119846D03*
G54D28*X674500Y128846D03*
G54D31*X627000Y319846D03*
Y219846D03*
Y119846D03*
G54D29*X727000Y219846D03*
Y319846D03*
X702000Y69846D03*
X727000Y419846D03*
G54D31*X627000D03*
G54D29*X527000D03*
G54D27*G36*
X510500Y97846D02*Y89846D01*
X518500D01*
Y97846D01*
X510500D01*
G37*
G54D28*X504500Y93846D03*
X494500D03*
X484500D03*
X474500D03*
X464500D03*
X454500D03*
X444500D03*
G54D29*X427000Y119846D03*
Y419846D03*
Y319846D03*
Y219846D03*
G54D28*X444500Y63846D03*
X454500D03*
X464500D03*
X474500D03*
X484500D03*
X494500D03*
X504500D03*
X514500D03*
G54D27*G36*
X523250Y77596D02*Y70096D01*
X530750D01*
Y77596D01*
X523250D01*
G37*
G54D30*X527000Y83846D03*
G54D27*G36*
X580500Y73846D02*Y65846D01*
X588500D01*
Y73846D01*
X580500D01*
G37*
G54D28*X604500Y69846D03*
G54D29*X427000Y19846D03*
G54D28*X172000Y562346D03*
Y532346D03*
X162000Y562346D03*
Y532346D03*
X152000Y562346D03*
Y532346D03*
X142000Y562346D03*
Y532346D03*
G54D29*X127000Y519846D03*
X27000D03*
G54D27*G36*
X208000Y466346D02*Y458346D01*
X216000D01*
Y466346D01*
X208000D01*
G37*
G54D28*X202000Y462346D03*
X192000D03*
Y432346D03*
X202000D03*
X212000D03*
G54D27*G36*
X233250Y444596D02*Y437096D01*
X240750D01*
Y444596D01*
X233250D01*
G37*
G54D30*X237000Y450846D03*
G54D28*X182000Y462346D03*
Y432346D03*
X172000Y462346D03*
Y432346D03*
X162000Y462346D03*
Y432346D03*
X152000Y462346D03*
X142000D03*
Y432346D03*
X152000D03*
G54D27*G36*
X208000Y566346D02*Y558346D01*
X216000D01*
Y566346D01*
X208000D01*
G37*
G54D28*X202000Y562346D03*
X192000D03*
X182000D03*
Y532346D03*
X192000D03*
X202000D03*
X212000D03*
G54D27*G36*
X233250Y546596D02*Y539096D01*
X240750D01*
Y546596D01*
X233250D01*
G37*
G54D30*X237000Y552846D03*
G54D29*X227000Y519846D03*
X327000Y419846D03*
X227000D03*
X127000D03*
X27000D03*
G54D28*X396000Y676846D03*
X386000D03*
X376000D03*
X366000D03*
X356000D03*
X346000D03*
Y646846D03*
X356000D03*
X376000D03*
X386000D03*
X396000D03*
G54D29*X327000Y719846D03*
Y619846D03*
G54D28*X366000Y646846D03*
G54D27*G36*
X233250Y659596D02*Y652096D01*
X240750D01*
Y659596D01*
X233250D01*
G37*
G54D30*X237000Y665846D03*
G54D29*X227000Y619846D03*
G54D27*G36*
X206000Y680346D02*Y672346D01*
X214000D01*
Y680346D01*
X206000D01*
G37*
G54D28*X200000Y676346D03*
X190000D03*
X180000D03*
X170000D03*
Y646346D03*
X180000D03*
X190000D03*
X200000D03*
X160000Y676346D03*
Y646346D03*
X150000Y676346D03*
Y646346D03*
X210000D03*
G54D29*X227000Y719846D03*
G54D28*X140000Y676346D03*
Y646346D03*
G54D29*X127000Y719846D03*
Y619846D03*
X77000Y694846D03*
X52000Y669846D03*
X27000Y719846D03*
Y619846D03*
G54D27*G36*
X232250Y145596D02*Y138096D01*
X239750D01*
Y145596D01*
X232250D01*
G37*
G54D30*X236000Y151846D03*
G54D27*G36*
X232250Y54596D02*Y47096D01*
X239750D01*
Y54596D01*
X232250D01*
G37*
G54D30*X236000Y60846D03*
G54D27*G36*
X233250Y346596D02*Y339096D01*
X240750D01*
Y346596D01*
X233250D01*
G37*
G54D30*X237000Y352846D03*
G54D29*X227000Y119846D03*
G54D27*G36*
X232250Y246096D02*Y238596D01*
X239750D01*
Y246096D01*
X232250D01*
G37*
G54D30*X236000Y252346D03*
G54D27*G36*
X208000Y266346D02*Y258346D01*
X216000D01*
Y266346D01*
X208000D01*
G37*
G54D28*X212000Y232346D03*
G54D29*X227000Y219846D03*
X327000D03*
Y119846D03*
Y19846D03*
G54D28*X202000Y262346D03*
X192000D03*
X182000D03*
X172000D03*
X162000D03*
X152000D03*
X142000D03*
Y232346D03*
X152000D03*
X162000D03*
X172000D03*
G54D29*X127000Y219846D03*
G54D28*X182000Y232346D03*
X192000D03*
X202000D03*
G54D27*G36*
X208000Y366346D02*Y358346D01*
X216000D01*
Y366346D01*
X208000D01*
G37*
G54D28*X202000Y362346D03*
X192000D03*
X182000D03*
X172000D03*
X162000D03*
X152000D03*
X142000D03*
X152000Y332346D03*
X162000D03*
X172000D03*
X182000D03*
X192000D03*
X202000D03*
X212000D03*
G54D29*X227000Y319846D03*
G54D28*X142000Y332346D03*
G54D29*X27000Y319846D03*
X127000D03*
X327000D03*
X27000Y219846D03*
Y119846D03*
G54D27*G36*
X38500Y722846D02*Y717846D01*
X43500D01*
Y722846D01*
X38500D01*
G37*
G36*
X110500Y622346D02*Y617346D01*
X115500D01*
Y622346D01*
X110500D01*
G37*
G36*
X102500D02*Y617346D01*
X107500D01*
Y622346D01*
X102500D01*
G37*
G36*
X39500D02*Y617346D01*
X44500D01*
Y622346D01*
X39500D01*
G37*
G36*
X47500D02*Y617346D01*
X52500D01*
Y622346D01*
X47500D01*
G37*
G36*
X46500Y722846D02*Y717846D01*
X51500D01*
Y722846D01*
X46500D01*
G37*
G36*
X212500Y722346D02*Y717346D01*
X217500D01*
Y722346D01*
X212500D01*
G37*
G36*
X204500D02*Y717346D01*
X209500D01*
Y722346D01*
X204500D01*
G37*
G36*
X136500D02*Y717346D01*
X141500D01*
Y722346D01*
X136500D01*
G37*
G36*
X144500D02*Y717346D01*
X149500D01*
Y722346D01*
X144500D01*
G37*
G36*
X237500Y622346D02*Y617346D01*
X242500D01*
Y622346D01*
X237500D01*
G37*
G36*
X245500D02*Y617346D01*
X250500D01*
Y622346D01*
X245500D01*
G37*
G36*
X608500Y723346D02*Y718346D01*
X613500D01*
Y723346D01*
X608500D01*
G37*
G36*
X600500D02*Y718346D01*
X605500D01*
Y723346D01*
X600500D01*
G37*
G36*
X711500Y722346D02*Y717346D01*
X716500D01*
Y722346D01*
X711500D01*
G37*
G36*
X703500D02*Y717346D01*
X708500D01*
Y722346D01*
X703500D01*
G37*
G36*
X513000D02*Y717346D01*
X518000D01*
Y722346D01*
X513000D01*
G37*
G36*
X505000D02*Y717346D01*
X510000D01*
Y722346D01*
X505000D01*
G37*
G36*
X412500Y721846D02*Y716846D01*
X417500D01*
Y721846D01*
X412500D01*
G37*
G36*
X404500D02*Y716846D01*
X409500D01*
Y721846D01*
X404500D01*
G37*
G36*
X313000Y722346D02*Y717346D01*
X318000D01*
Y722346D01*
X313000D01*
G37*
G36*
X305000D02*Y717346D01*
X310000D01*
Y722346D01*
X305000D01*
G37*
G36*
X413500Y621846D02*Y616846D01*
X418500D01*
Y621846D01*
X413500D01*
G37*
G36*
X405500D02*Y616846D01*
X410500D01*
Y621846D01*
X405500D01*
G37*
G36*
X512500Y622346D02*Y617346D01*
X517500D01*
Y622346D01*
X512500D01*
G37*
G36*
X504500D02*Y617346D01*
X509500D01*
Y622346D01*
X504500D01*
G37*
G36*
X711500D02*Y617346D01*
X716500D01*
Y622346D01*
X711500D01*
G37*
G36*
X703500D02*Y617346D01*
X708500D01*
Y622346D01*
X703500D01*
G37*
G36*
X608500D02*Y617346D01*
X613500D01*
Y622346D01*
X608500D01*
G37*
G36*
X600500D02*Y617346D01*
X605500D01*
Y622346D01*
X600500D01*
G37*
G36*
X608500Y522346D02*Y517346D01*
X613500D01*
Y522346D01*
X608500D01*
G37*
G36*
X711500D02*Y517346D01*
X716500D01*
Y522346D01*
X711500D01*
G37*
G36*
X703500D02*Y517346D01*
X708500D01*
Y522346D01*
X703500D01*
G37*
G36*
X600500D02*Y517346D01*
X605500D01*
Y522346D01*
X600500D01*
G37*
G36*
X512500D02*Y517346D01*
X517500D01*
Y522346D01*
X512500D01*
G37*
G36*
X504500D02*Y517346D01*
X509500D01*
Y522346D01*
X504500D01*
G37*
G36*
X424500Y509346D02*Y504346D01*
X429500D01*
Y509346D01*
X424500D01*
G37*
G36*
Y501346D02*Y496346D01*
X429500D01*
Y501346D01*
X424500D01*
G37*
G36*
X608500Y422346D02*Y417346D01*
X613500D01*
Y422346D01*
X608500D01*
G37*
G36*
X600500D02*Y417346D01*
X605500D01*
Y422346D01*
X600500D01*
G37*
G36*
X512500D02*Y417346D01*
X517500D01*
Y422346D01*
X512500D01*
G37*
G36*
X504500D02*Y417346D01*
X509500D01*
Y422346D01*
X504500D01*
G37*
G36*
X412500Y322346D02*Y317346D01*
X417500D01*
Y322346D01*
X412500D01*
G37*
G36*
X512500D02*Y317346D01*
X517500D01*
Y322346D01*
X512500D01*
G37*
G36*
X504500D02*Y317346D01*
X509500D01*
Y322346D01*
X504500D01*
G37*
G36*
X608500D02*Y317346D01*
X613500D01*
Y322346D01*
X608500D01*
G37*
G36*
X600500D02*Y317346D01*
X605500D01*
Y322346D01*
X600500D01*
G37*
G36*
X711500D02*Y317346D01*
X716500D01*
Y322346D01*
X711500D01*
G37*
G36*
X703500D02*Y317346D01*
X708500D01*
Y322346D01*
X703500D01*
G37*
G36*
X711500Y422346D02*Y417346D01*
X716500D01*
Y422346D01*
X711500D01*
G37*
G36*
X703500D02*Y417346D01*
X708500D01*
Y422346D01*
X703500D01*
G37*
G36*
X238500Y222346D02*Y217346D01*
X243500D01*
Y222346D01*
X238500D01*
G37*
G36*
X246500D02*Y217346D01*
X251500D01*
Y222346D01*
X246500D01*
G37*
G36*
X312500D02*Y217346D01*
X317500D01*
Y222346D01*
X312500D01*
G37*
G36*
X304500D02*Y217346D01*
X309500D01*
Y222346D01*
X304500D01*
G37*
G36*
X339500Y22346D02*Y17346D01*
X344500D01*
Y22346D01*
X339500D01*
G37*
G36*
X246500D02*Y17346D01*
X251500D01*
Y22346D01*
X246500D01*
G37*
G36*
X347500D02*Y17346D01*
X352500D01*
Y22346D01*
X347500D01*
G37*
G36*
X404500Y222346D02*Y217346D01*
X409500D01*
Y222346D01*
X404500D01*
G37*
G36*
X238500Y122346D02*Y117346D01*
X243500D01*
Y122346D01*
X238500D01*
G37*
G36*
Y22346D02*Y17346D01*
X243500D01*
Y22346D01*
X238500D01*
G37*
G36*
X246500Y122346D02*Y117346D01*
X251500D01*
Y122346D01*
X246500D01*
G37*
G36*
X311500D02*Y117346D01*
X316500D01*
Y122346D01*
X311500D01*
G37*
G36*
X303500D02*Y117346D01*
X308500D01*
Y122346D01*
X303500D01*
G37*
G36*
X404500D02*Y117346D01*
X409500D01*
Y122346D01*
X404500D01*
G37*
G36*
X311500Y621846D02*Y616846D01*
X316500D01*
Y621846D01*
X311500D01*
G37*
G36*
X312500Y322346D02*Y317346D01*
X317500D01*
Y322346D01*
X312500D01*
G37*
G36*
X304500D02*Y317346D01*
X309500D01*
Y322346D01*
X304500D01*
G37*
G36*
X303500Y621846D02*Y616846D01*
X308500D01*
Y621846D01*
X303500D01*
G37*
G36*
X313500Y522346D02*Y517346D01*
X318500D01*
Y522346D01*
X313500D01*
G37*
G36*
X305500D02*Y517346D01*
X310500D01*
Y522346D01*
X305500D01*
G37*
G36*
X238500D02*Y517346D01*
X243500D01*
Y522346D01*
X238500D01*
G37*
G36*
X246500D02*Y517346D01*
X251500D01*
Y522346D01*
X246500D01*
G37*
G36*
X412500Y422346D02*Y417346D01*
X417500D01*
Y422346D01*
X412500D01*
G37*
G36*
X404500D02*Y417346D01*
X409500D01*
Y422346D01*
X404500D01*
G37*
G36*
X313000D02*Y417346D01*
X318000D01*
Y422346D01*
X313000D01*
G37*
G36*
X305000D02*Y417346D01*
X310000D01*
Y422346D01*
X305000D01*
G37*
G36*
X238500D02*Y417346D01*
X243500D01*
Y422346D01*
X238500D01*
G37*
G36*
X246500D02*Y417346D01*
X251500D01*
Y422346D01*
X246500D01*
G37*
G36*
X245500Y322346D02*Y317346D01*
X250500D01*
Y322346D01*
X245500D01*
G37*
G36*
X404500D02*Y317346D01*
X409500D01*
Y322346D01*
X404500D01*
G37*
G36*
X110500Y522346D02*Y517346D01*
X115500D01*
Y522346D01*
X110500D01*
G37*
G36*
X102500D02*Y517346D01*
X107500D01*
Y522346D01*
X102500D01*
G37*
G36*
X39500D02*Y517346D01*
X44500D01*
Y522346D01*
X39500D01*
G37*
G36*
X47500D02*Y517346D01*
X52500D01*
Y522346D01*
X47500D01*
G37*
G36*
X110500Y422346D02*Y417346D01*
X115500D01*
Y422346D01*
X110500D01*
G37*
G36*
Y322346D02*Y317346D01*
X115500D01*
Y322346D01*
X110500D01*
G37*
G36*
X237500D02*Y317346D01*
X242500D01*
Y322346D01*
X237500D01*
G37*
G36*
X102500Y422346D02*Y417346D01*
X107500D01*
Y422346D01*
X102500D01*
G37*
G36*
X38500D02*Y417346D01*
X43500D01*
Y422346D01*
X38500D01*
G37*
G36*
X46500D02*Y417346D01*
X51500D01*
Y422346D01*
X46500D01*
G37*
G36*
X680654Y200421D02*Y197272D01*
X687346D01*
Y200421D01*
X680654D01*
G37*
G36*
X670814D02*Y197272D01*
X677506D01*
Y200421D01*
X670814D01*
G37*
G36*
X624500Y34346D02*Y29346D01*
X629500D01*
Y34346D01*
X624500D01*
G37*
G36*
Y42346D02*Y37346D01*
X629500D01*
Y42346D01*
X624500D01*
G37*
G36*
X724500Y29846D02*Y24846D01*
X729500D01*
Y29846D01*
X724500D01*
G37*
G36*
Y37846D02*Y32846D01*
X729500D01*
Y37846D01*
X724500D01*
G37*
G36*
X412500Y222346D02*Y217346D01*
X417500D01*
Y222346D01*
X412500D01*
G37*
G36*
X512500D02*Y217346D01*
X517500D01*
Y222346D01*
X512500D01*
G37*
G36*
X504500D02*Y217346D01*
X509500D01*
Y222346D01*
X504500D01*
G37*
G36*
X608500D02*Y217346D01*
X613500D01*
Y222346D01*
X608500D01*
G37*
G36*
X600500D02*Y217346D01*
X605500D01*
Y222346D01*
X600500D01*
G37*
G36*
X711500D02*Y217346D01*
X716500D01*
Y222346D01*
X711500D01*
G37*
G36*
X703500D02*Y217346D01*
X708500D01*
Y222346D01*
X703500D01*
G37*
G36*
X412500Y122346D02*Y117346D01*
X417500D01*
Y122346D01*
X412500D01*
G37*
G36*
X608500D02*Y117346D01*
X613500D01*
Y122346D01*
X608500D01*
G37*
G36*
X600500D02*Y117346D01*
X605500D01*
Y122346D01*
X600500D01*
G37*
G36*
X711500D02*Y117346D01*
X716500D01*
Y122346D01*
X711500D01*
G37*
G36*
X703500D02*Y117346D01*
X708500D01*
Y122346D01*
X703500D01*
G37*
G36*
X524500Y134346D02*Y129346D01*
X529500D01*
Y134346D01*
X524500D01*
G37*
G36*
X440500Y22346D02*Y17346D01*
X445500D01*
Y22346D01*
X440500D01*
G37*
G36*
X448500D02*Y17346D01*
X453500D01*
Y22346D01*
X448500D01*
G37*
G36*
X512500D02*Y17346D01*
X517500D01*
Y22346D01*
X512500D01*
G37*
G36*
X504500D02*Y17346D01*
X509500D01*
Y22346D01*
X504500D01*
G37*
G36*
X524500Y142346D02*Y137346D01*
X529500D01*
Y142346D01*
X524500D01*
G37*
G36*
X38500Y322346D02*Y317346D01*
X43500D01*
Y322346D01*
X38500D01*
G37*
G36*
X46500D02*Y317346D01*
X51500D01*
Y322346D01*
X46500D01*
G37*
G36*
X102500D02*Y317346D01*
X107500D01*
Y322346D01*
X102500D01*
G37*
G36*
X38500Y222346D02*Y217346D01*
X43500D01*
Y222346D01*
X38500D01*
G37*
G36*
X46500D02*Y217346D01*
X51500D01*
Y222346D01*
X46500D01*
G37*
G36*
X102500D02*Y217346D01*
X107500D01*
Y222346D01*
X102500D01*
G37*
G36*
X110500D02*Y217346D01*
X115500D01*
Y222346D01*
X110500D01*
G37*
G36*
X37500Y122346D02*Y117346D01*
X42500D01*
Y122346D01*
X37500D01*
G37*
G36*
X45500D02*Y117346D01*
X50500D01*
Y122346D01*
X45500D01*
G37*
G36*
X110500D02*Y117346D01*
X115500D01*
Y122346D01*
X110500D01*
G37*
G36*
X102500D02*Y117346D01*
X107500D01*
Y122346D01*
X102500D01*
G37*
G36*
X37500Y22346D02*Y17346D01*
X42500D01*
Y22346D01*
X37500D01*
G37*
G36*
X45500D02*Y17346D01*
X50500D01*
Y22346D01*
X45500D01*
G37*
G36*
X110500D02*Y17346D01*
X115500D01*
Y22346D01*
X110500D01*
G37*
G36*
X102500D02*Y17346D01*
X107500D01*
Y22346D01*
X102500D01*
G37*
G54D28*X202000Y519846D03*
X192000D03*
X182000D03*
X172000Y511846D03*
Y519846D03*
X162000Y511846D03*
Y519846D03*
X142000D03*
X64000Y669846D03*
X129000Y665846D03*
X131000Y553846D03*
X200000Y636346D03*
X190000D03*
X180000D03*
X170000D03*
X160000D03*
X227000Y562346D03*
X89000Y694846D03*
X228000Y675846D03*
X386000Y635846D03*
X366000Y627846D03*
X406000Y636846D03*
X666000Y694846D03*
X691000Y669846D03*
X333000Y665846D03*
X366000Y686846D03*
X416000D03*
X406000D03*
X396000D03*
X386000D03*
X376000D03*
X356000D03*
X344000Y519846D03*
X354000D03*
X364000D03*
X374000D03*
X384000D03*
X394000D03*
X404000D03*
X414000D03*
Y572846D03*
X404000D03*
X394000D03*
X344000D03*
X374000D03*
X384000D03*
X364000D03*
X354000D03*
X701000Y81846D03*
X666000Y44846D03*
X674000Y113846D03*
X685000D03*
X644000Y36846D03*
X685000Y143846D03*
X674000D03*
X685000Y176846D03*
X675000D03*
X627000Y49846D03*
X624500Y69846D03*
X562000Y94846D03*
X505000Y103846D03*
X548000Y36846D03*
X537000Y94846D03*
X504000Y8846D03*
X474000Y103846D03*
X484000D03*
X494000D03*
Y19846D03*
X454000Y103846D03*
X464000D03*
X434000Y83846D03*
X484000Y51846D03*
X453000Y46846D03*
X475000D03*
X360000Y19846D03*
X462000D03*
X227000Y68846D03*
X172000Y24846D03*
X182000D03*
X162000D03*
X202000Y29846D03*
Y122846D03*
X227000Y163846D03*
X192000Y122346D03*
X259000Y19846D03*
X202000Y219846D03*
Y319846D03*
Y421846D03*
X227000Y462846D03*
Y363846D03*
Y262346D03*
X172000Y218846D03*
X142000D03*
X162000Y211346D03*
Y218846D03*
X172000Y211346D03*
X182000Y218846D03*
X192000D03*
X172000Y311346D03*
X162000D03*
X182000Y318846D03*
X192000D03*
X131000Y252846D03*
Y451846D03*
X172000Y413846D03*
Y421846D03*
Y318846D03*
X142000D03*
X162000D03*
X131000Y353846D03*
X192000Y421846D03*
X182000D03*
X162000Y413846D03*
Y421846D03*
X142000D03*
Y24846D03*
X94000Y19846D03*
X77000Y56846D03*
X131000Y60846D03*
X52000Y82846D03*
X131000Y152846D03*
X142000Y121846D03*
X182000D03*
X172000Y114846D03*
Y122346D03*
X162000Y114846D03*
Y122346D03*
X60000Y19846D03*
G54D34*G54D35*G54D34*G54D35*G54D34*G54D35*G54D34*G54D35*G54D34*G54D36*G54D37*G54D36*G54D37*G54D36*G54D37*G54D36*G54D37*G54D26*G54D36*G54D26*G54D37*G54D26*G54D36*G54D37*G54D36*G54D37*G54D38*G54D37*G54D38*G54D39*G54D37*G54D26*G54D37*G54D26*G54D37*G54D26*G54D37*G54D36*G54D37*G54D36*G54D26*G54D37*G54D36*G54D37*G54D36*G54D26*G54D36*G54D26*G54D37*G54D36*G54D37*G54D36*G54D26*G54D37*G54D36*G54D37*G54D36*G54D37*G54D26*G54D37*G54D26*G54D36*G54D37*G54D36*G54D37*G54D36*G54D37*G54D36*G54D37*M02*
