M48
INCH
T45C0.035
T44C0.043
T43C0.038
T42C0.030
T41C0.042
T40C0.028
%
T40
X014000Y067635
X014000Y064635
X014200Y056235
X014200Y053235
X014200Y046235
X014200Y043235
X014200Y036235
X014200Y033235
X014200Y026235
X014200Y023235
X014200Y016235
X014200Y013235
X014200Y007035
X014200Y004035
X015000Y067635
X015000Y064635
X015200Y056235
X015200Y053235
X015200Y046235
X015200Y043235
X015200Y036235
X015200Y033235
X015200Y026235
X015200Y023235
X015200Y016235
X015200Y013235
X015200Y007035
X015200Y004035
X016000Y067635
X016000Y064635
X016200Y056235
X016200Y053235
X016200Y046235
X016200Y043235
X016200Y036235
X016200Y033235
X016200Y026235
X016200Y023235
X016200Y016235
X016200Y013235
X016200Y007035
X016200Y004035
X017000Y067635
X017000Y064635
X017200Y056235
X017200Y053235
X017200Y046235
X017200Y043235
X017200Y036235
X017200Y033235
X017200Y026235
X017200Y023235
X017200Y016235
X017200Y013235
X017200Y007035
X017200Y004035
X018000Y067635
X018000Y064635
X018200Y056235
X018200Y053235
X018200Y046235
X018200Y043235
X018200Y036235
X018200Y033235
X018200Y026235
X018200Y023235
X018200Y016235
X018200Y013235
X018200Y007035
X018200Y004035
X019000Y067635
X019000Y064635
X019200Y056235
X019200Y053235
X019200Y046235
X019200Y043235
X019200Y036235
X019200Y033235
X019200Y026235
X019200Y023235
X019200Y016235
X019200Y013235
X019200Y007035
X019200Y004035
X020000Y067635
X020000Y064635
X020200Y056235
X020200Y053235
X020200Y046235
X020200Y043235
X020200Y036235
X020200Y033235
X020200Y026235
X020200Y023235
X020200Y016235
X020200Y013235
X020200Y007035
X020200Y004035
X021000Y067635
X021000Y064635
X021200Y056235
X021200Y053235
X021200Y046235
X021200Y043235
X021200Y036235
X021200Y033235
X021200Y026235
X021200Y023235
X021200Y016235
X021200Y013235
X021200Y007035
X021200Y004035
X033400Y056285
X033400Y053285
X034400Y056285
X034400Y053285
X034600Y067685
X034600Y064685
X035400Y056285
X035400Y053285
X035600Y067685
X035600Y064685
X036400Y056285
X036400Y053285
X036600Y067685
X036600Y064685
X037400Y056285
X037400Y053285
X037600Y067685
X037600Y064685
X038400Y056285
X038400Y053285
X038600Y067685
X038600Y064685
X039400Y056285
X039400Y053285
X039600Y067685
X039600Y064685
X040400Y056285
X040400Y053285
X040600Y067685
X040600Y064685
X041400Y056285
X041400Y053285
X041600Y067685
X041600Y064685
X044450Y009385
X044450Y006385
X045450Y009385
X045450Y006385
X046450Y009385
X046450Y006385
X047450Y009385
X047450Y006385
X048450Y009385
X048450Y006385
X049450Y009385
X049450Y006385
X050450Y009385
X050450Y006385
X051450Y009385
X051450Y006385
T42
X023600Y025235
X023600Y024235
X023600Y015185
X023600Y014185
X023600Y006085
X023600Y005085
X023700Y066585
X023700Y065585
X023700Y055285
X023700Y054285
X023700Y045085
X023700Y044085
X023700Y035285
X023700Y034285
X043100Y066585
X043100Y065585
X043100Y055185
X043100Y054185
X052700Y008385
X052700Y007385
X054900Y009385
X054900Y008385
X058450Y006985
X060450Y006985
X067450Y012885
X068450Y012885
T45
X005200Y008285
X006000Y001985
X006400Y066985
X007700Y005685
X008900Y069485
X009400Y001985
X012900Y066585
X013100Y055385
X013100Y045185
X013100Y035385
X013100Y025285
X013100Y015285
X013100Y006085
X014200Y051985
X014200Y042185
X014200Y031885
X014200Y021885
X014200Y012185
X014200Y002485
X016000Y063635
X016200Y051985
X016200Y051185
X016200Y042185
X016200Y041385
X016200Y031885
X016200Y031135
X016200Y021885
X016200Y021135
X016200Y012235
X016200Y011485
X016200Y002485
X017000Y063635
X017200Y051985
X017200Y051185
X017200Y042185
X017200Y041385
X017200Y031885
X017200Y031135
X017200Y021885
X017200Y021135
X017200Y012235
X017200Y011485
X017200Y002485
X018000Y063635
X018200Y051985
X018200Y042185
X018200Y031885
X018200Y021885
X018200Y012185
X018200Y002485
X019000Y063635
X019200Y051985
X019200Y042185
X019200Y031885
X019200Y021885
X019200Y012235
X020000Y063635
X020200Y051985
X020200Y042185
X020200Y031985
X020200Y021985
X020200Y012285
X020200Y002985
X022700Y056235
X022700Y046285
X022700Y036385
X022700Y026235
X022700Y016385
X022700Y006885
X022800Y067585
X025900Y001985
X033300Y066585
X034400Y057285
X034400Y051985
X035400Y057285
X035400Y051985
X035600Y068685
X036000Y001985
X036400Y057285
X036400Y051985
X036600Y068685
X036600Y062785
X037400Y057285
X037400Y051985
X037600Y068685
X038400Y057285
X038400Y051985
X038600Y068685
X038600Y063585
X039400Y057285
X039400Y051985
X039600Y068685
X040400Y057285
X040400Y051985
X040600Y068685
X040600Y063685
X041400Y057285
X041400Y051985
X041600Y068685
X043400Y008385
X045300Y004685
X045400Y010385
X046200Y001985
X046400Y010385
X047400Y010385
X047500Y004685
X048400Y010385
X048400Y005185
X049400Y010385
X049400Y001985
X050400Y000885
X050500Y010385
X053700Y009485
X054800Y003685
X056200Y009485
X062450Y006985
X062700Y004985
X064400Y003685
X066600Y069485
X066600Y004485
X067400Y014385
X067400Y011385
X067500Y017685
X068500Y017685
X068500Y014385
X068500Y011385
X069100Y066985
X070100Y008185
T43
X055300Y002585
X056300Y002585
X057300Y002585
X058300Y002585
X059300Y002585
X064450Y001985
X068450Y001985
T41
X002700Y071985
X002700Y061985
X002700Y051985
X002700Y041985
X002700Y031985
X002700Y021985
X002700Y011985
X002700Y001985
X005200Y066985
X005200Y006985
X007700Y069485
X007700Y004485
X012700Y071985
X012700Y061985
X012700Y051985
X012700Y041985
X012700Y031985
X012700Y021985
X012700Y011985
X012700Y001985
X022700Y071985
X022700Y061985
X022700Y051985
X022700Y041985
X022700Y031985
X022700Y021985
X022700Y011985
X022700Y001985
X032700Y071985
X032700Y061985
X032700Y051985
X032700Y041985
X032700Y031985
X032700Y021985
X032700Y011985
X032700Y001985
X042700Y071985
X042700Y061985
X042700Y051985
X042700Y041985
X042700Y031985
X042700Y021985
X042700Y011985
X042700Y001985
X052700Y071985
X052700Y061985
X052700Y051985
X052700Y041985
X052700Y031985
X052700Y021985
X052700Y011985
X052700Y001985
X062700Y071985
X062700Y061985
X062700Y051985
X062700Y041985
X062700Y031985
X062700Y021985
X062700Y011985
X062700Y001985
X067700Y069485
X067700Y004485
X070200Y066985
X070200Y006985
X072700Y071985
X072700Y061985
X072700Y051985
X072700Y041985
X072700Y031985
X072700Y021985
X072700Y011985
X072700Y001985
T44
X069950Y001985
X070950Y001985
M30
