G04 start of page 8 for group -4079 idx -4079 *
G04 Title: (unknown), topsilk *
G04 Creator: pcb v4.0.2-g2d695f8b *
G04 CreationDate: Sat Jan 27 08:31:28 2018 UTC *
G04 For: zhenke *
G04 Format: Gerber/RS-274X *
G04 PCB-Dimensions (mil): 7480.31 7283.46 *
G04 PCB-Coordinate-Origin: lower left *
%MOIN*%
%FSLAX25Y25*%
%LNTOPSILK*%
%ADD65C,0.0110*%
%ADD64C,0.0100*%
%ADD63C,0.0200*%
G54D63*X10500Y726846D02*X743000D01*
X9500D02*Y2346D01*
X742000D01*
Y726846D02*Y2346D01*
G54D64*X604000Y572026D02*X609800D01*
X604000Y562746D02*X609800Y572026D01*
X604000Y562746D02*X609800D01*
X612584Y572026D02*Y562746D01*
X618384Y572026D02*Y562746D01*
X612584Y567386D02*X618384D01*
X622792Y562746D02*X625808D01*
X621168Y564370D02*X622792Y562746D01*
X621168Y570402D02*Y564370D01*
Y570402D02*X622792Y572026D01*
X625808D01*
X628592Y562746D02*X629752D01*
X636712Y572026D02*X642512D01*
X636712Y562746D02*X642512Y572026D01*
X636712Y562746D02*X642512D01*
X645296Y572026D02*Y562746D01*
Y567386D02*X649936Y572026D01*
X645296Y567386D02*X649936Y562746D01*
X652720D02*X653880D01*
X660840Y572026D02*Y565066D01*
X663160Y562746D01*
X670120D01*
X672440Y572026D02*Y566226D01*
Y572026D02*X670120Y574346D01*
X663160D02*X670120D01*
X663160D02*X660840Y572026D01*
X664320Y569706D02*Y567386D01*
X665480Y566226D01*
X667800D01*
X668960Y567386D01*
X670120Y566226D01*
X668960Y570866D02*Y567386D01*
Y569706D02*X667800Y570866D01*
X665480D02*X667800D01*
X665480D02*X664320Y569706D01*
X670120Y566226D02*X672440D01*
X679400Y570866D02*X680560Y572026D01*
X684040D01*
X685200Y570866D01*
Y568546D01*
X679400Y562746D02*X685200Y568546D01*
X679400Y562746D02*X685200D01*
X687984Y563906D02*X689144Y562746D01*
X687984Y570866D02*Y563906D01*
Y570866D02*X689144Y572026D01*
X691464D01*
X692624Y570866D01*
Y563906D01*
X691464Y562746D02*X692624Y563906D01*
X689144Y562746D02*X691464D01*
X687984Y565066D02*X692624Y569706D01*
X695408Y570170D02*X697264Y572026D01*
Y562746D01*
X695408D02*X698888D01*
X701672Y563906D02*X702832Y562746D01*
X701672Y565762D02*Y563906D01*
Y565762D02*X703296Y567386D01*
X704688D01*
X706312Y565762D01*
Y563906D01*
X705152Y562746D02*X706312Y563906D01*
X702832Y562746D02*X705152D01*
X701672Y569010D02*X703296Y567386D01*
X701672Y570866D02*Y569010D01*
Y570866D02*X702832Y572026D01*
X705152D01*
X706312Y570866D01*
Y569010D01*
X704688Y567386D02*X706312Y569010D01*
X709096Y562746D02*X710256D01*
X713040Y563906D02*X714200Y562746D01*
X713040Y570866D02*Y563906D01*
Y570866D02*X714200Y572026D01*
X716520D01*
X717680Y570866D01*
Y563906D01*
X716520Y562746D02*X717680Y563906D01*
X714200Y562746D02*X716520D01*
X713040Y565066D02*X717680Y569706D01*
X720464Y570170D02*X722320Y572026D01*
Y562746D01*
X720464D02*X723944D01*
G54D65*X656000Y599586D02*Y588546D01*
X661520D01*
X664832Y594618D02*X668972D01*
X664832Y588546D02*X670352D01*
X664832Y599586D02*Y588546D01*
Y599586D02*X670352D01*
X675044D02*Y588546D01*
X678632Y599586D02*X680564Y597654D01*
Y590478D01*
X678632Y588546D02*X680564Y590478D01*
X673664Y588546D02*X678632D01*
X673664Y599586D02*X678632D01*
X690776Y588546D02*X694364D01*
X688844Y590478D02*X690776Y588546D01*
X688844Y597654D02*Y590478D01*
Y597654D02*X690776Y599586D01*
X694364D01*
X697676D02*Y589926D01*
X699056Y588546D01*
X701816D01*
X703196Y589926D01*
Y599586D02*Y589926D01*
X706508Y588546D02*X712028D01*
X713408Y589926D01*
Y593238D02*Y589926D01*
X712028Y594618D02*X713408Y593238D01*
X707888Y594618D02*X712028D01*
X707888Y599586D02*Y588546D01*
X706508Y599586D02*X712028D01*
X713408Y598206D01*
Y595998D01*
X712028Y594618D02*X713408Y595998D01*
X716720Y594618D02*X720860D01*
X716720Y588546D02*X722240D01*
X716720Y599586D02*Y588546D01*
Y599586D02*X722240D01*
G54D64*X535200Y28346D02*X536500D01*
X534500Y29046D02*X535200Y28346D01*
X534500Y31646D02*Y29046D01*
Y31646D02*X535200Y32346D01*
X536500D01*
X537700D02*Y28846D01*
X538200Y28346D01*
X539200Y29846D02*Y28846D01*
Y29846D02*X539700Y30346D01*
X540700D01*
X541200Y29846D01*
Y28846D01*
X540700Y28346D02*X541200Y28846D01*
X539700Y28346D02*X540700D01*
X539200Y28846D02*X539700Y28346D01*
X542900Y30346D02*X544400D01*
X542400Y29846D02*X542900Y30346D01*
X542400Y29846D02*Y28846D01*
X542900Y28346D01*
X544400D01*
X545600Y32346D02*Y28346D01*
Y29846D02*X547100Y28346D01*
X545600Y29846D02*X546600Y30846D01*
X565500Y37346D02*Y33346D01*
X566800Y37346D02*X567500Y36646D01*
Y34046D01*
X566800Y33346D02*X567500Y34046D01*
X565000Y33346D02*X566800D01*
X565000Y37346D02*X566800D01*
X570200Y35346D02*X570700Y34846D01*
X569200Y35346D02*X570200D01*
X568700Y34846D02*X569200Y35346D01*
X568700Y34846D02*Y33846D01*
X569200Y33346D01*
X570700Y35346D02*Y33846D01*
X571200Y33346D01*
X569200D02*X570200D01*
X570700Y33846D01*
X572900Y37346D02*Y33846D01*
X573400Y33346D01*
X572400Y35846D02*X573400D01*
X575900Y35346D02*X576400Y34846D01*
X574900Y35346D02*X575900D01*
X574400Y34846D02*X574900Y35346D01*
X574400Y34846D02*Y33846D01*
X574900Y33346D01*
X576400Y35346D02*Y33846D01*
X576900Y33346D01*
X574900D02*X575900D01*
X576400Y33846D01*
X593000Y37346D02*X594000Y33346D01*
X595000Y37346D01*
X596700Y35346D02*X598200D01*
X596200Y34846D02*X596700Y35346D01*
X596200Y34846D02*Y33846D01*
X596700Y33346D01*
X598200D01*
X599900Y35346D02*X601400D01*
X599400Y34846D02*X599900Y35346D01*
X599400Y34846D02*Y33846D01*
X599900Y33346D01*
X601400D01*
X582500Y37346D02*X583000Y36846D01*
X581000Y37346D02*X582500D01*
X580500Y36846D02*X581000Y37346D01*
X580500Y36846D02*Y33846D01*
X581000Y33346D01*
X582500D01*
X583000Y33846D01*
Y34846D02*Y33846D01*
X582500Y35346D02*X583000Y34846D01*
X581500Y35346D02*X582500D01*
X584700Y34846D02*Y33346D01*
Y34846D02*X585200Y35346D01*
X585700D01*
X586200Y34846D01*
Y33346D01*
X584200Y35346D02*X584700Y34846D01*
X589400Y37346D02*Y33346D01*
X588900D02*X589400Y33846D01*
X587900Y33346D02*X588900D01*
X587400Y33846D02*X587900Y33346D01*
X587400Y34846D02*Y33846D01*
Y34846D02*X587900Y35346D01*
X588900D01*
X589400Y34846D01*
X549000Y32346D02*Y28346D01*
X551000D01*
X553700Y30346D02*X554200Y29846D01*
X552700Y30346D02*X553700D01*
X552200Y29846D02*X552700Y30346D01*
X552200Y29846D02*Y28846D01*
X552700Y28346D01*
X554200Y30346D02*Y28846D01*
X554700Y28346D01*
X552700D02*X553700D01*
X554200Y28846D01*
X556400Y32346D02*Y28846D01*
X556900Y28346D01*
X555900Y30846D02*X556900D01*
X558400Y30346D02*X559900D01*
X557900Y29846D02*X558400Y30346D01*
X557900Y29846D02*Y28846D01*
X558400Y28346D01*
X559900D01*
X561100Y32346D02*Y28346D01*
Y29846D02*X561600Y30346D01*
X562600D01*
X563100Y29846D01*
Y28346D01*
X137000Y567346D02*X217000D01*
X137000D02*Y527346D01*
X217000D01*
Y567346D02*Y552346D01*
Y542346D02*Y527346D01*
Y552346D02*G75*G03X217000Y542346I0J-5000D01*G01*
X237000Y658346D02*Y655846D01*
Y665846D02*Y663346D01*
X236200D02*Y658346D01*
Y663346D02*X237800D01*
Y658346D01*
X236200D02*X237800D01*
X237000Y545346D02*Y542846D01*
Y552846D02*Y550346D01*
X236200D02*Y545346D01*
Y550346D02*X237800D01*
Y545346D01*
X236200D02*X237800D01*
X135000Y681346D02*X215000D01*
X135000D02*Y641346D01*
X215000D01*
Y681346D02*Y666346D01*
Y656346D02*Y641346D01*
Y666346D02*G75*G03X215000Y656346I0J-5000D01*G01*
X431000Y544346D02*Y541846D01*
Y551846D02*Y549346D01*
X430200D02*Y544346D01*
Y549346D02*X431800D01*
Y544346D01*
X430200D02*X431800D01*
X329000Y567846D02*X419000D01*
X329000D02*Y527846D01*
X419000D01*
Y567846D02*Y552846D01*
Y542846D02*Y527846D01*
Y552846D02*G75*G03X419000Y542846I0J-5000D01*G01*
X431000Y665846D02*Y663346D01*
Y658346D02*Y655846D01*
X431800Y663346D02*Y658346D01*
X430200D02*X431800D01*
X430200Y663346D02*Y658346D01*
Y663346D02*X431800D01*
X341000Y681846D02*X421000D01*
X341000D02*Y641846D01*
X421000D01*
Y681846D02*Y666846D01*
Y656846D02*Y641846D01*
Y666846D02*G75*G03X421000Y656846I0J-5000D01*G01*
X137000Y467346D02*X217000D01*
X137000D02*Y427346D01*
X217000D01*
Y467346D02*Y452346D01*
Y442346D02*Y427346D01*
Y452346D02*G75*G03X217000Y442346I0J-5000D01*G01*
X237000Y443346D02*Y440846D01*
Y450846D02*Y448346D01*
X236200D02*Y443346D01*
Y448346D02*X237800D01*
Y443346D01*
X236200D02*X237800D01*
X137000Y75346D02*X217000D01*
X137000D02*Y35346D01*
X217000D01*
Y75346D02*Y60346D01*
Y50346D02*Y35346D01*
Y60346D02*G75*G03X217000Y50346I0J-5000D01*G01*
X137000Y167346D02*X217000D01*
X137000D02*Y127346D01*
X217000D01*
Y167346D02*Y152346D01*
Y142346D02*Y127346D01*
Y152346D02*G75*G03X217000Y142346I0J-5000D01*G01*
X236000Y53346D02*Y50846D01*
Y60846D02*Y58346D01*
X235200D02*Y53346D01*
Y58346D02*X236800D01*
Y53346D01*
X235200D02*X236800D01*
X236000Y244846D02*Y242346D01*
Y252346D02*Y249846D01*
X235200D02*Y244846D01*
Y249846D02*X236800D01*
Y244846D01*
X235200D02*X236800D01*
X237000Y345346D02*Y342846D01*
Y352846D02*Y350346D01*
X236200D02*Y345346D01*
Y350346D02*X237800D01*
Y345346D01*
X236200D02*X237800D01*
X137000Y267346D02*X217000D01*
X137000D02*Y227346D01*
X217000D01*
Y267346D02*Y252346D01*
Y242346D02*Y227346D01*
Y252346D02*G75*G03X217000Y242346I0J-5000D01*G01*
X137000Y367346D02*X217000D01*
X137000D02*Y327346D01*
X217000D01*
Y367346D02*Y352346D01*
Y342346D02*Y327346D01*
Y352346D02*G75*G03X217000Y342346I0J-5000D01*G01*
X548000Y30846D02*X578000D01*
X548000D02*Y20846D01*
X578000D01*
Y30846D02*Y20846D01*
X568000Y30846D02*Y20846D01*
X578000D01*
X598000D01*
Y30846D02*Y20846D01*
X578000Y30846D02*X598000D01*
X578000D02*Y20846D01*
X588000Y30846D02*Y20846D01*
X578000Y30846D02*X588000D01*
X549000Y93846D02*Y91346D01*
Y86346D02*Y83846D01*
X549800Y91346D02*Y86346D01*
X548200D02*X549800D01*
X548200Y91346D02*Y86346D01*
Y91346D02*X549800D01*
X574500Y69846D02*G75*G03X574500Y69846I20000J0D01*G01*
G54D63*X654500Y14846D02*X674500D01*
X654500Y24846D02*Y14846D01*
Y24846D02*X674500D01*
Y14846D01*
Y19846D02*X684500D01*
X644500D02*X654500D01*
G54D64*X700328Y15675D02*G75*G03X708672Y15675I4172J4172D01*G01*
X708672Y24018D02*G75*G03X700328Y24018I-4172J-4172D01*G01*
X698914Y14260D02*G75*G03X710086Y14260I5586J5586D01*G01*
X710086Y25433D02*G75*G03X698914Y25433I-5586J-5586D01*G01*
X689500Y128846D02*G75*G03X689500Y128846I-10000J0D01*G01*
X236000Y144346D02*Y141846D01*
Y151846D02*Y149346D01*
X235200D02*Y144346D01*
Y149346D02*X236800D01*
Y144346D01*
X235200D02*X236800D01*
X439500Y98846D02*X519500D01*
X439500D02*Y58846D01*
X519500D01*
Y98846D02*Y83846D01*
Y73846D02*Y58846D01*
Y83846D02*G75*G03X519500Y73846I0J-5000D01*G01*
X527000Y76346D02*Y73846D01*
Y83846D02*Y81346D01*
X526200D02*Y76346D01*
Y81346D02*X527800D01*
Y76346D01*
X526200D02*X527800D01*
X553200Y13846D02*X554500D01*
X552500Y14546D02*X553200Y13846D01*
X552500Y17146D02*Y14546D01*
Y17146D02*X553200Y17846D01*
X554500D01*
X555700Y17346D02*Y14346D01*
Y17346D02*X556200Y17846D01*
X557200D01*
X557700Y17346D01*
Y14346D01*
X557200Y13846D02*X557700Y14346D01*
X556200Y13846D02*X557200D01*
X555700Y14346D02*X556200Y13846D01*
X558900Y17846D02*Y13846D01*
Y17846D02*X561400Y13846D01*
Y17846D02*Y13846D01*
X562600Y17846D02*Y13846D01*
Y17846D02*X565100Y13846D01*
Y17846D02*Y13846D01*
X566300Y17346D02*X566800Y17846D01*
X568300D01*
X568800Y17346D01*
Y16346D01*
X566300Y13846D02*X568800Y16346D01*
X566300Y13846D02*X568800D01*
X593500Y37346D02*X594800D01*
X595500Y36646D02*X594800Y37346D01*
X595500Y36646D02*Y34046D01*
X594800Y33346D01*
X593500D02*X594800D01*
X592300Y36846D02*Y33846D01*
X591800Y33346D01*
X590800D02*X591800D01*
X590800D02*X590300Y33846D01*
Y36846D02*Y33846D01*
X590800Y37346D02*X590300Y36846D01*
X590800Y37346D02*X591800D01*
X592300Y36846D02*X591800Y37346D01*
X589100D02*Y33346D01*
X586600Y37346D01*
Y33346D01*
X585400Y37346D02*Y33346D01*
X582900Y37346D01*
Y33346D01*
X581700Y34146D02*X580900Y33346D01*
Y37346D02*Y33346D01*
X580200Y37346D02*X581700D01*
X670500Y18846D02*X672500D01*
X670500D02*X670000Y19346D01*
Y20346D02*Y19346D01*
X670500Y20846D02*X670000Y20346D01*
X670500Y20846D02*X672000D01*
Y22846D02*Y18846D01*
X671200Y20846D02*X670000Y22846D01*
X667300Y18846D02*X666800Y19346D01*
X667300Y18846D02*X668300D01*
X668800Y19346D02*X668300Y18846D01*
X668800Y22346D02*Y19346D01*
Y22346D02*X668300Y22846D01*
X667300Y20646D02*X666800Y21146D01*
X667300Y20646D02*X668800D01*
X667300Y22846D02*X668300D01*
X667300D02*X666800Y22346D01*
Y21146D01*
X663600Y18846D02*X665600D01*
Y20846D02*Y18846D01*
Y20846D02*X665100Y20346D01*
X664100D02*X665100D01*
X664100D02*X663600Y20846D01*
Y22346D02*Y20846D01*
X664100Y22846D02*X663600Y22346D01*
X664100Y22846D02*X665100D01*
X665600Y22346D02*X665100Y22846D01*
X631000Y16346D02*X635000D01*
X631000Y17846D02*Y15846D01*
Y17846D02*X631500Y18346D01*
X632500D01*
X633000Y17846D02*X632500Y18346D01*
X633000Y17846D02*Y16346D01*
X631500Y19546D02*X631000Y20046D01*
Y21546D02*Y20046D01*
Y21546D02*X631500Y22046D01*
X632500D01*
X635000Y19546D02*X632500Y22046D01*
X635000D02*Y19546D01*
X678000Y45346D02*X682000D01*
X678000Y46846D02*Y44846D01*
Y46846D02*X678500Y47346D01*
X679500D01*
X680000Y46846D02*X679500Y47346D01*
X680000Y46846D02*Y45346D01*
X678000Y50046D02*X678500Y50546D01*
X678000Y50046D02*Y49046D01*
X678500Y48546D02*X678000Y49046D01*
X678500Y48546D02*X681500D01*
X682000Y49046D01*
X679800Y50046D02*X680300Y50546D01*
X679800Y50046D02*Y48546D01*
X682000Y50046D02*Y49046D01*
Y50046D02*X681500Y50546D01*
X680300D02*X681500D01*
X678000Y53246D02*X678500Y53746D01*
X678000Y53246D02*Y52246D01*
X678500Y51746D02*X678000Y52246D01*
X678500Y51746D02*X681500D01*
X682000Y52246D01*
X679800Y53246D02*X680300Y53746D01*
X679800Y53246D02*Y51746D01*
X682000Y53246D02*Y52246D01*
Y53246D02*X681500Y53746D01*
X680300D02*X681500D01*
X715000Y11846D02*Y7846D01*
X716300Y11846D02*X717000Y11146D01*
Y8546D01*
X716300Y7846D02*X717000Y8546D01*
X714500Y7846D02*X716300D01*
X714500Y11846D02*X716300D01*
X718200Y11046D02*X719000Y11846D01*
Y7846D01*
X718200D02*X719700D01*
X703000Y70346D02*X707000D01*
X703000Y71846D02*Y69846D01*
Y71846D02*X703500Y72346D01*
X704500D01*
X705000Y71846D02*X704500Y72346D01*
X705000Y71846D02*Y70346D01*
X703000Y75046D02*X703500Y75546D01*
X703000Y75046D02*Y74046D01*
X703500Y73546D02*X703000Y74046D01*
X703500Y73546D02*X706500D01*
X707000Y74046D01*
X704800Y75046D02*X705300Y75546D01*
X704800Y75046D02*Y73546D01*
X707000Y75046D02*Y74046D01*
Y75046D02*X706500Y75546D01*
X705300D02*X706500D01*
X703000Y78746D02*Y76746D01*
X705000D01*
X704500Y77246D01*
Y78246D02*Y77246D01*
Y78246D02*X705000Y78746D01*
X706500D01*
X707000Y78246D02*X706500Y78746D01*
X707000Y78246D02*Y77246D01*
X706500Y76746D02*X707000Y77246D01*
X541200Y83646D02*Y82346D01*
X541900Y84346D02*X541200Y83646D01*
X541900Y84346D02*X544500D01*
X545200Y83646D01*
Y82346D01*
X544400Y81146D02*X545200Y80346D01*
X541200D02*X545200D01*
X541200Y81146D02*Y79646D01*
X544400Y78446D02*X545200Y77646D01*
X541200D02*X545200D01*
X541200Y78446D02*Y76946D01*
X731000Y18346D02*X735000D01*
X731000Y19846D02*Y17846D01*
Y19846D02*X731500Y20346D01*
X732500D01*
X733000Y19846D02*X732500Y20346D01*
X733000Y19846D02*Y18346D01*
X731800Y21546D02*X731000Y22346D01*
X735000D01*
Y23046D02*Y21546D01*
X531000Y16346D02*X535000D01*
X531000Y17846D02*Y15846D01*
Y17846D02*X531500Y18346D01*
X532500D01*
X533000Y17846D02*X532500Y18346D01*
X533000Y17846D02*Y16346D01*
X531500Y19546D02*X531000Y20046D01*
Y21046D02*Y20046D01*
Y21046D02*X531500Y21546D01*
X535000Y21046D02*X534500Y21546D01*
X535000Y21046D02*Y20046D01*
X534500Y19546D02*X535000Y20046D01*
X532800Y21046D02*Y20046D01*
X531500Y21546D02*X532300D01*
X533300D02*X534500D01*
X533300D02*X532800Y21046D01*
X532300Y21546D02*X532800Y21046D01*
X432000Y16346D02*X436000D01*
X432000Y17846D02*Y15846D01*
Y17846D02*X432500Y18346D01*
X433500D01*
X434000Y17846D02*X433500Y18346D01*
X434000Y17846D02*Y16346D01*
X434500Y19546D02*X432000Y21546D01*
X434500Y22046D02*Y19546D01*
X432000Y21546D02*X436000D01*
X331000Y17346D02*X335000D01*
X331000Y18846D02*Y16846D01*
Y18846D02*X331500Y19346D01*
X332500D01*
X333000Y18846D02*X332500Y19346D01*
X333000Y18846D02*Y17346D01*
X331000Y22546D02*Y20546D01*
X333000D01*
X332500Y21046D01*
Y22046D02*Y21046D01*
Y22046D02*X333000Y22546D01*
X334500D01*
X335000Y22046D02*X334500Y22546D01*
X335000Y22046D02*Y21046D01*
X334500Y20546D02*X335000Y21046D01*
X509500Y81346D02*Y77846D01*
Y81346D02*X509000Y81846D01*
X508000D02*X509000D01*
X508000D02*X507500Y81346D01*
Y77846D01*
X506300Y78646D02*X505500Y77846D01*
Y81846D02*Y77846D01*
X504800Y81846D02*X506300D01*
X431000Y216346D02*X435000D01*
X431000Y217846D02*Y215846D01*
Y217846D02*X431500Y218346D01*
X432500D01*
X433000Y217846D02*X432500Y218346D01*
X433000Y217846D02*Y216346D01*
X431500Y219546D02*X431000Y220046D01*
Y221546D02*Y220046D01*
Y221546D02*X431500Y222046D01*
X432500D01*
X435000Y219546D02*X432500Y222046D01*
X435000D02*Y219546D01*
X434500Y223246D02*X435000Y223746D01*
X431500Y223246D02*X434500D01*
X431500D02*X431000Y223746D01*
Y224746D02*Y223746D01*
Y224746D02*X431500Y225246D01*
X434500D01*
X435000Y224746D02*X434500Y225246D01*
X435000Y224746D02*Y223746D01*
X434000Y223246D02*X432000Y225246D01*
Y116346D02*X436000D01*
X432000Y117846D02*Y115846D01*
Y117846D02*X432500Y118346D01*
X433500D01*
X434000Y117846D02*X433500Y118346D01*
X434000Y117846D02*Y116346D01*
X432800Y119546D02*X432000Y120346D01*
X436000D01*
Y121046D02*Y119546D01*
X432500Y122246D02*X432000Y122746D01*
Y124246D02*Y122746D01*
Y124246D02*X432500Y124746D01*
X433500D01*
X436000Y122246D02*X433500Y124746D01*
X436000D02*Y122246D01*
X432000Y314846D02*X436000D01*
X432000Y316346D02*Y314346D01*
Y316346D02*X432500Y316846D01*
X433500D01*
X434000Y316346D02*X433500Y316846D01*
X434000Y316346D02*Y314846D01*
X432500Y318046D02*X432000Y318546D01*
Y320046D02*Y318546D01*
Y320046D02*X432500Y320546D01*
X433500D01*
X436000Y318046D02*X433500Y320546D01*
X436000D02*Y318046D01*
X435500Y321746D02*X436000Y322246D01*
X434700Y321746D02*X435500D01*
X434700D02*X434000Y322446D01*
Y323046D02*Y322446D01*
Y323046D02*X434700Y323746D01*
X435500D01*
X436000Y323246D02*X435500Y323746D01*
X436000Y323246D02*Y322246D01*
X433300Y321746D02*X434000Y322446D01*
X432500Y321746D02*X433300D01*
X432500D02*X432000Y322246D01*
Y323246D02*Y322246D01*
Y323246D02*X432500Y323746D01*
X433300D01*
X434000Y323046D02*X433300Y323746D01*
X432000Y415346D02*X436000D01*
X432000Y416846D02*Y414846D01*
Y416846D02*X432500Y417346D01*
X433500D01*
X434000Y416846D02*X433500Y417346D01*
X434000Y416846D02*Y415346D01*
X432500Y418546D02*X432000Y419046D01*
Y420046D02*Y419046D01*
Y420046D02*X432500Y420546D01*
X436000Y420046D02*X435500Y420546D01*
X436000Y420046D02*Y419046D01*
X435500Y418546D02*X436000Y419046D01*
X433800Y420046D02*Y419046D01*
X432500Y420546D02*X433300D01*
X434300D02*X435500D01*
X434300D02*X433800Y420046D01*
X433300Y420546D02*X433800Y420046D01*
X432000Y423246D02*X432500Y423746D01*
X432000Y423246D02*Y422246D01*
X432500Y421746D02*X432000Y422246D01*
X432500Y421746D02*X435500D01*
X436000Y422246D01*
X433800Y423246D02*X434300Y423746D01*
X433800Y423246D02*Y421746D01*
X436000Y423246D02*Y422246D01*
Y423246D02*X435500Y423746D01*
X434300D02*X435500D01*
X438800Y553346D02*Y552046D01*
X438100Y551346D02*X438800Y552046D01*
X435500Y551346D02*X438100D01*
X435500D02*X434800Y552046D01*
Y553346D02*Y552046D01*
X435600Y554546D02*X434800Y555346D01*
X438800D01*
Y556046D02*Y554546D01*
X438300Y557246D02*X438800Y557746D01*
X435300Y557246D02*X438300D01*
X435300D02*X434800Y557746D01*
Y558746D02*Y557746D01*
Y558746D02*X435300Y559246D01*
X438300D01*
X438800Y558746D02*X438300Y559246D01*
X438800Y558746D02*Y557746D01*
X437800Y557246D02*X435800Y559246D01*
X409000Y550346D02*Y546846D01*
Y550346D02*X408500Y550846D01*
X407500D02*X408500D01*
X407500D02*X407000Y550346D01*
Y546846D01*
X405800Y547646D02*X405000Y546846D01*
Y550846D02*Y546846D01*
X404300Y550846D02*X405800D01*
X403100Y550346D02*X402600Y550846D01*
X403100Y550346D02*Y547346D01*
X402600Y546846D01*
X401600D02*X402600D01*
X401600D02*X401100Y547346D01*
Y550346D02*Y547346D01*
X401600Y550846D02*X401100Y550346D01*
X401600Y550846D02*X402600D01*
X403100Y549846D02*X401100Y547846D01*
X431000Y514346D02*X435000D01*
X431000Y515846D02*Y513846D01*
Y515846D02*X431500Y516346D01*
X432500D01*
X433000Y515846D02*X432500Y516346D01*
X433000Y515846D02*Y514346D01*
X433500Y517546D02*X431000Y519546D01*
X433500Y520046D02*Y517546D01*
X431000Y519546D02*X435000D01*
X433500Y521246D02*X431000Y523246D01*
X433500Y523746D02*Y521246D01*
X431000Y523246D02*X435000D01*
X332000Y613432D02*X336000D01*
X332000Y614932D02*Y612932D01*
Y614932D02*X332500Y615432D01*
X333500D01*
X334000Y614932D02*X333500Y615432D01*
X334000Y614932D02*Y613432D01*
X332000Y618632D02*Y616632D01*
X334000D01*
X333500Y617132D01*
Y618132D02*Y617132D01*
Y618132D02*X334000Y618632D01*
X335500D01*
X336000Y618132D02*X335500Y618632D01*
X336000Y618132D02*Y617132D01*
X335500Y616632D02*X336000Y617132D01*
X332500Y619832D02*X332000Y620332D01*
Y621332D02*Y620332D01*
Y621332D02*X332500Y621832D01*
X336000Y621332D02*X335500Y621832D01*
X336000Y621332D02*Y620332D01*
X335500Y619832D02*X336000Y620332D01*
X333800Y621332D02*Y620332D01*
X332500Y621832D02*X333300D01*
X334300D02*X335500D01*
X334300D02*X333800Y621332D01*
X333300Y621832D02*X333800Y621332D01*
X332000Y515346D02*X336000D01*
X332000Y516846D02*Y514846D01*
Y516846D02*X332500Y517346D01*
X333500D01*
X334000Y516846D02*X333500Y517346D01*
X334000Y516846D02*Y515346D01*
X334500Y518546D02*X332000Y520546D01*
X334500Y521046D02*Y518546D01*
X332000Y520546D02*X336000D01*
X332000Y524246D02*Y522246D01*
X334000D01*
X333500Y522746D01*
Y523746D02*Y522746D01*
Y523746D02*X334000Y524246D01*
X335500D01*
X336000Y523746D02*X335500Y524246D01*
X336000Y523746D02*Y522746D01*
X335500Y522246D02*X336000Y522746D01*
X532000Y614346D02*X536000D01*
X532000Y615846D02*Y613846D01*
Y615846D02*X532500Y616346D01*
X533500D01*
X534000Y615846D02*X533500Y616346D01*
X534000Y615846D02*Y614346D01*
X532000Y619546D02*Y617546D01*
X534000D01*
X533500Y618046D01*
Y619046D02*Y618046D01*
Y619046D02*X534000Y619546D01*
X535500D01*
X536000Y619046D02*X535500Y619546D01*
X536000Y619046D02*Y618046D01*
X535500Y617546D02*X536000Y618046D01*
X532800Y620746D02*X532000Y621546D01*
X536000D01*
Y622246D02*Y620746D01*
X532000Y513889D02*X536000D01*
X532000Y515389D02*Y513389D01*
Y515389D02*X532500Y515889D01*
X533500D01*
X534000Y515389D02*X533500Y515889D01*
X534000Y515389D02*Y513889D01*
X534500Y517089D02*X532000Y519089D01*
X534500Y519589D02*Y517089D01*
X532000Y519089D02*X536000D01*
X532500Y520789D02*X532000Y521289D01*
Y522289D02*Y521289D01*
Y522289D02*X532500Y522789D01*
X536000Y522289D02*X535500Y522789D01*
X536000Y522289D02*Y521289D01*
X535500Y520789D02*X536000Y521289D01*
X533800Y522289D02*Y521289D01*
X532500Y522789D02*X533300D01*
X534300D02*X535500D01*
X534300D02*X533800Y522289D01*
X533300Y522789D02*X533800Y522289D01*
X531000Y316346D02*X535000D01*
X531000Y317846D02*Y315846D01*
Y317846D02*X531500Y318346D01*
X532500D01*
X533000Y317846D02*X532500Y318346D01*
X533000Y317846D02*Y316346D01*
X531500Y319546D02*X531000Y320046D01*
Y321546D02*Y320046D01*
Y321546D02*X531500Y322046D01*
X532500D01*
X535000Y319546D02*X532500Y322046D01*
X535000D02*Y319546D01*
Y323746D02*X531000Y325746D01*
Y323246D01*
X333000Y415346D02*X337000D01*
X333000Y416846D02*Y414846D01*
Y416846D02*X333500Y417346D01*
X334500D01*
X335000Y416846D02*X334500Y417346D01*
X335000Y416846D02*Y415346D01*
X333500Y418546D02*X333000Y419046D01*
Y420046D02*Y419046D01*
Y420046D02*X333500Y420546D01*
X337000Y420046D02*X336500Y420546D01*
X337000Y420046D02*Y419046D01*
X336500Y418546D02*X337000Y419046D01*
X334800Y420046D02*Y419046D01*
X333500Y420546D02*X334300D01*
X335300D02*X336500D01*
X335300D02*X334800Y420046D01*
X334300Y420546D02*X334800Y420046D01*
X337000Y422246D02*X333000Y424246D01*
Y421746D01*
X331000Y315346D02*X335000D01*
X331000Y316846D02*Y314846D01*
Y316846D02*X331500Y317346D01*
X332500D01*
X333000Y316846D02*X332500Y317346D01*
X333000Y316846D02*Y315346D01*
X331500Y318546D02*X331000Y319046D01*
Y320546D02*Y319046D01*
Y320546D02*X331500Y321046D01*
X332500D01*
X335000Y318546D02*X332500Y321046D01*
X335000D02*Y318546D01*
Y322746D02*X333000Y324246D01*
X331500D02*X333000D01*
X331000Y323746D02*X331500Y324246D01*
X331000Y323746D02*Y322746D01*
X331500Y322246D02*X331000Y322746D01*
X331500Y322246D02*X332500D01*
X333000Y322746D01*
Y324246D02*Y322746D01*
X331000Y214346D02*X335000D01*
X331000Y215846D02*Y213846D01*
Y215846D02*X331500Y216346D01*
X332500D01*
X333000Y215846D02*X332500Y216346D01*
X333000Y215846D02*Y214346D01*
X331500Y217546D02*X331000Y218046D01*
Y219546D02*Y218046D01*
Y219546D02*X331500Y220046D01*
X332500D01*
X335000Y217546D02*X332500Y220046D01*
X335000D02*Y217546D01*
X331800Y221246D02*X331000Y222046D01*
X335000D01*
Y222746D02*Y221246D01*
X532000Y215846D02*X536000D01*
X532000Y217346D02*Y215346D01*
Y217346D02*X532500Y217846D01*
X533500D01*
X534000Y217346D02*X533500Y217846D01*
X534000Y217346D02*Y215846D01*
X532800Y219046D02*X532000Y219846D01*
X536000D01*
Y220546D02*Y219046D01*
Y222246D02*X534000Y223746D01*
X532500D02*X534000D01*
X532000Y223246D02*X532500Y223746D01*
X532000Y223246D02*Y222246D01*
X532500Y221746D02*X532000Y222246D01*
X532500Y221746D02*X533500D01*
X534000Y222246D01*
Y223746D02*Y222246D01*
X331000Y115346D02*X335000D01*
X331000Y116846D02*Y114846D01*
Y116846D02*X331500Y117346D01*
X332500D01*
X333000Y116846D02*X332500Y117346D01*
X333000Y116846D02*Y115346D01*
X331800Y118546D02*X331000Y119346D01*
X335000D01*
Y120046D02*Y118546D01*
X331500Y121246D02*X331000Y121746D01*
Y122746D02*Y121746D01*
Y122746D02*X331500Y123246D01*
X335000Y122746D02*X334500Y123246D01*
X335000Y122746D02*Y121746D01*
X334500Y121246D02*X335000Y121746D01*
X332800Y122746D02*Y121746D01*
X331500Y123246D02*X332300D01*
X333300D02*X334500D01*
X333300D02*X332800Y122746D01*
X332300Y123246D02*X332800Y122746D01*
X534800Y85346D02*Y84046D01*
X534100Y83346D02*X534800Y84046D01*
X531500Y83346D02*X534100D01*
X531500D02*X530800Y84046D01*
Y85346D02*Y84046D01*
X531600Y86546D02*X530800Y87346D01*
X534800D01*
Y88046D02*Y86546D01*
X532500Y117846D02*X536500D01*
X532500Y119346D02*Y117346D01*
Y119346D02*X533000Y119846D01*
X534000D01*
X534500Y119346D02*X534000Y119846D01*
X534500Y119346D02*Y117846D01*
X533300Y121046D02*X532500Y121846D01*
X536500D01*
Y122546D02*Y121046D01*
X533300Y123746D02*X532500Y124546D01*
X536500D01*
Y125246D02*Y123746D01*
X667500Y123846D02*X668800D01*
X669500Y123146D02*X668800Y123846D01*
X669500Y123146D02*Y120546D01*
X668800Y119846D01*
X667500D02*X668800D01*
X666300Y120646D02*X665500Y119846D01*
Y123846D02*Y119846D01*
X664800Y123846D02*X666300D01*
X663600Y120346D02*X663100Y119846D01*
X662100D02*X663100D01*
X662100D02*X661600Y120346D01*
X662100Y123846D02*X661600Y123346D01*
X662100Y123846D02*X663100D01*
X663600Y123346D02*X663100Y123846D01*
X662100Y121646D02*X663100D01*
X661600Y121146D02*Y120346D01*
Y123346D02*Y122146D01*
X662100Y121646D01*
X661600Y121146D02*X662100Y121646D01*
X615200Y84846D02*X616500D01*
X614500Y85546D02*X615200Y84846D01*
X614500Y88146D02*Y85546D01*
Y88146D02*X615200Y88846D01*
X616500D01*
X617700Y88046D02*X618500Y88846D01*
Y84846D01*
X617700D02*X619200D01*
X620400Y88346D02*X620900Y88846D01*
X622400D01*
X622900Y88346D01*
Y87346D01*
X620400Y84846D02*X622900Y87346D01*
X620400Y84846D02*X622900D01*
X632000Y215346D02*X636000D01*
X632000Y216846D02*Y214846D01*
Y216846D02*X632500Y217346D01*
X633500D01*
X634000Y216846D02*X633500Y217346D01*
X634000Y216846D02*Y215346D01*
X632800Y218546D02*X632000Y219346D01*
X636000D01*
Y220046D02*Y218546D01*
X635500Y221246D02*X636000Y221746D01*
X634700Y221246D02*X635500D01*
X634700D02*X634000Y221946D01*
Y222546D02*Y221946D01*
Y222546D02*X634700Y223246D01*
X635500D01*
X636000Y222746D02*X635500Y223246D01*
X636000Y222746D02*Y221746D01*
X633300Y221246D02*X634000Y221946D01*
X632500Y221246D02*X633300D01*
X632500D02*X632000Y221746D01*
Y222746D02*Y221746D01*
Y222746D02*X632500Y223246D01*
X633300D01*
X634000Y222546D02*X633300Y223246D01*
X631000Y115346D02*X635000D01*
X631000Y116846D02*Y114846D01*
Y116846D02*X631500Y117346D01*
X632500D01*
X633000Y116846D02*X632500Y117346D01*
X633000Y116846D02*Y115346D01*
X631800Y118546D02*X631000Y119346D01*
X635000D01*
Y120046D02*Y118546D01*
X634500Y121246D02*X635000Y121746D01*
X631500Y121246D02*X634500D01*
X631500D02*X631000Y121746D01*
Y122746D02*Y121746D01*
Y122746D02*X631500Y123246D01*
X634500D01*
X635000Y122746D02*X634500Y123246D01*
X635000Y122746D02*Y121746D01*
X634000Y121246D02*X632000Y123246D01*
X731000Y214346D02*X735000D01*
X731000Y215846D02*Y213846D01*
Y215846D02*X731500Y216346D01*
X732500D01*
X733000Y215846D02*X732500Y216346D01*
X733000Y215846D02*Y214346D01*
X731800Y217546D02*X731000Y218346D01*
X735000D01*
Y219046D02*Y217546D01*
Y220746D02*X731000Y222746D01*
Y220246D01*
Y117346D02*X735000D01*
X731000Y118846D02*Y116846D01*
Y118846D02*X731500Y119346D01*
X732500D01*
X733000Y118846D02*X732500Y119346D01*
X733000Y118846D02*Y117346D01*
X735000Y121046D02*X733000Y122546D01*
X731500D02*X733000D01*
X731000Y122046D02*X731500Y122546D01*
X731000Y122046D02*Y121046D01*
X731500Y120546D02*X731000Y121046D01*
X731500Y120546D02*X732500D01*
X733000Y121046D01*
Y122546D02*Y121046D01*
X207000Y57846D02*Y54346D01*
Y57846D02*X206500Y58346D01*
X205500D02*X206500D01*
X205500D02*X205000Y57846D01*
Y54346D01*
X203800Y54846D02*X203300Y54346D01*
X201800D02*X203300D01*
X201800D02*X201300Y54846D01*
Y55846D02*Y54846D01*
X203800Y58346D02*X201300Y55846D01*
Y58346D02*X203800D01*
X243800Y62346D02*Y61046D01*
X243100Y60346D02*X243800Y61046D01*
X240500Y60346D02*X243100D01*
X240500D02*X239800Y61046D01*
Y62346D02*Y61046D01*
X240300Y63546D02*X239800Y64046D01*
Y65546D02*Y64046D01*
Y65546D02*X240300Y66046D01*
X241300D01*
X243800Y63546D02*X241300Y66046D01*
X243800D02*Y63546D01*
X231000Y115346D02*X235000D01*
X231000Y116846D02*Y114846D01*
Y116846D02*X231500Y117346D01*
X232500D01*
X233000Y116846D02*X232500Y117346D01*
X233000Y116846D02*Y115346D01*
X231800Y118546D02*X231000Y119346D01*
X235000D01*
Y120046D02*Y118546D01*
X233500Y121246D02*X231000Y123246D01*
X233500Y123746D02*Y121246D01*
X231000Y123246D02*X235000D01*
X231000Y18346D02*X235000D01*
X231000Y19846D02*Y17846D01*
Y19846D02*X231500Y20346D01*
X232500D01*
X233000Y19846D02*X232500Y20346D01*
X233000Y19846D02*Y18346D01*
X231000Y23046D02*X231500Y23546D01*
X231000Y23046D02*Y22046D01*
X231500Y21546D02*X231000Y22046D01*
X231500Y21546D02*X234500D01*
X235000Y22046D01*
X232800Y23046D02*X233300Y23546D01*
X232800Y23046D02*Y21546D01*
X235000Y23046D02*Y22046D01*
Y23046D02*X234500Y23546D01*
X233300D02*X234500D01*
X207000Y549846D02*Y546346D01*
Y549846D02*X206500Y550346D01*
X205500D02*X206500D01*
X205500D02*X205000Y549846D01*
Y546346D01*
X203300Y550346D02*X201300Y546346D01*
X203800D01*
X207000Y449846D02*Y446346D01*
Y449846D02*X206500Y450346D01*
X205500D02*X206500D01*
X205500D02*X205000Y449846D01*
Y446346D01*
X202300D02*X201800Y446846D01*
X202300Y446346D02*X203300D01*
X203800Y446846D02*X203300Y446346D01*
X203800Y449846D02*Y446846D01*
Y449846D02*X203300Y450346D01*
X202300Y448146D02*X201800Y448646D01*
X202300Y448146D02*X203800D01*
X202300Y450346D02*X203300D01*
X202300D02*X201800Y449846D01*
Y448646D01*
X244800Y452346D02*Y451046D01*
X244100Y450346D02*X244800Y451046D01*
X241500Y450346D02*X244100D01*
X241500D02*X240800Y451046D01*
Y452346D02*Y451046D01*
Y455046D02*X241300Y455546D01*
X240800Y455046D02*Y454046D01*
X241300Y453546D02*X240800Y454046D01*
X241300Y453546D02*X244300D01*
X244800Y454046D01*
X242600Y455046D02*X243100Y455546D01*
X242600Y455046D02*Y453546D01*
X244800Y455046D02*Y454046D01*
Y455046D02*X244300Y455546D01*
X243100D02*X244300D01*
X244800Y554346D02*Y553046D01*
X244100Y552346D02*X244800Y553046D01*
X241500Y552346D02*X244100D01*
X241500D02*X240800Y553046D01*
Y554346D02*Y553046D01*
X244800Y556046D02*X240800Y558046D01*
Y555546D01*
X232000Y513432D02*X236000D01*
X232000Y514932D02*Y512932D01*
Y514932D02*X232500Y515432D01*
X233500D01*
X234000Y514932D02*X233500Y515432D01*
X234000Y514932D02*Y513432D01*
X234500Y516632D02*X232000Y518632D01*
X234500Y519132D02*Y516632D01*
X232000Y518632D02*X236000D01*
X232000Y521832D02*X232500Y522332D01*
X232000Y521832D02*Y520832D01*
X232500Y520332D02*X232000Y520832D01*
X232500Y520332D02*X235500D01*
X236000Y520832D01*
X233800Y521832D02*X234300Y522332D01*
X233800Y521832D02*Y520332D01*
X236000Y521832D02*Y520832D01*
Y521832D02*X235500Y522332D01*
X234300D02*X235500D01*
X244800Y354346D02*Y353046D01*
X244100Y352346D02*X244800Y353046D01*
X241500Y352346D02*X244100D01*
X241500D02*X240800Y353046D01*
Y354346D02*Y353046D01*
Y357546D02*Y355546D01*
X242800D01*
X242300Y356046D01*
Y357046D02*Y356046D01*
Y357046D02*X242800Y357546D01*
X244300D01*
X244800Y357046D02*X244300Y357546D01*
X244800Y357046D02*Y356046D01*
X244300Y355546D02*X244800Y356046D01*
X131000Y516432D02*X135000D01*
X131000Y517932D02*Y515932D01*
Y517932D02*X131500Y518432D01*
X132500D01*
X133000Y517932D02*X132500Y518432D01*
X133000Y517932D02*Y516432D01*
X133500Y519632D02*X131000Y521632D01*
X133500Y522132D02*Y519632D01*
X131000Y521632D02*X135000D01*
Y523832D02*X131000Y525832D01*
Y523332D01*
X31000Y514346D02*X35000D01*
X31000Y515846D02*Y513846D01*
Y515846D02*X31500Y516346D01*
X32500D01*
X33000Y515846D02*X32500Y516346D01*
X33000Y515846D02*Y514346D01*
X33500Y517546D02*X31000Y519546D01*
X33500Y520046D02*Y517546D01*
X31000Y519546D02*X35000D01*
X34500Y521246D02*X35000Y521746D01*
X33700Y521246D02*X34500D01*
X33700D02*X33000Y521946D01*
Y522546D02*Y521946D01*
Y522546D02*X33700Y523246D01*
X34500D01*
X35000Y522746D02*X34500Y523246D01*
X35000Y522746D02*Y521746D01*
X32300Y521246D02*X33000Y521946D01*
X31500Y521246D02*X32300D01*
X31500D02*X31000Y521746D01*
Y522746D02*Y521746D01*
Y522746D02*X31500Y523246D01*
X32300D01*
X33000Y522546D02*X32300Y523246D01*
X31000Y415346D02*X35000D01*
X31000Y416846D02*Y414846D01*
Y416846D02*X31500Y417346D01*
X32500D01*
X33000Y416846D02*X32500Y417346D01*
X33000Y416846D02*Y415346D01*
X33500Y418546D02*X31000Y420546D01*
X33500Y421046D02*Y418546D01*
X31000Y420546D02*X35000D01*
X34500Y422246D02*X35000Y422746D01*
X31500Y422246D02*X34500D01*
X31500D02*X31000Y422746D01*
Y423746D02*Y422746D01*
Y423746D02*X31500Y424246D01*
X34500D01*
X35000Y423746D02*X34500Y424246D01*
X35000Y423746D02*Y422746D01*
X34000Y422246D02*X32000Y424246D01*
X231000Y415346D02*X235000D01*
X231000Y416846D02*Y414846D01*
Y416846D02*X231500Y417346D01*
X232500D01*
X233000Y416846D02*X232500Y417346D01*
X233000Y416846D02*Y415346D01*
X231500Y418546D02*X231000Y419046D01*
Y420046D02*Y419046D01*
Y420046D02*X231500Y420546D01*
X235000Y420046D02*X234500Y420546D01*
X235000Y420046D02*Y419046D01*
X234500Y418546D02*X235000Y419046D01*
X232800Y420046D02*Y419046D01*
X231500Y420546D02*X232300D01*
X233300D02*X234500D01*
X233300D02*X232800Y420046D01*
X232300Y420546D02*X232800Y420046D01*
X234500Y421746D02*X235000Y422246D01*
X233700Y421746D02*X234500D01*
X233700D02*X233000Y422446D01*
Y423046D02*Y422446D01*
Y423046D02*X233700Y423746D01*
X234500D01*
X235000Y423246D02*X234500Y423746D01*
X235000Y423246D02*Y422246D01*
X232300Y421746D02*X233000Y422446D01*
X231500Y421746D02*X232300D01*
X231500D02*X231000Y422246D01*
Y423246D02*Y422246D01*
Y423246D02*X231500Y423746D01*
X232300D01*
X233000Y423046D02*X232300Y423746D01*
X131000Y416346D02*X135000D01*
X131000Y417846D02*Y415846D01*
Y417846D02*X131500Y418346D01*
X132500D01*
X133000Y417846D02*X132500Y418346D01*
X133000Y417846D02*Y416346D01*
X131500Y419546D02*X131000Y420046D01*
Y421046D02*Y420046D01*
Y421046D02*X131500Y421546D01*
X135000Y421046D02*X134500Y421546D01*
X135000Y421046D02*Y420046D01*
X134500Y419546D02*X135000Y420046D01*
X132800Y421046D02*Y420046D01*
X131500Y421546D02*X132300D01*
X133300D02*X134500D01*
X133300D02*X132800Y421046D01*
X132300Y421546D02*X132800Y421046D01*
X135000Y423246D02*X133000Y424746D01*
X131500D02*X133000D01*
X131000Y424246D02*X131500Y424746D01*
X131000Y424246D02*Y423246D01*
X131500Y422746D02*X131000Y423246D01*
X131500Y422746D02*X132500D01*
X133000Y423246D01*
Y424746D02*Y423246D01*
X53000Y670346D02*X57000D01*
X53000Y671846D02*Y669846D01*
Y671846D02*X53500Y672346D01*
X54500D01*
X55000Y671846D02*X54500Y672346D01*
X55000Y671846D02*Y670346D01*
X53000Y675046D02*X53500Y675546D01*
X53000Y675046D02*Y674046D01*
X53500Y673546D02*X53000Y674046D01*
X53500Y673546D02*X56500D01*
X57000Y674046D01*
X54800Y675046D02*X55300Y675546D01*
X54800Y675046D02*Y673546D01*
X57000Y675046D02*Y674046D01*
Y675046D02*X56500Y675546D01*
X55300D02*X56500D01*
X57000Y677246D02*X55000Y678746D01*
X53500D02*X55000D01*
X53000Y678246D02*X53500Y678746D01*
X53000Y678246D02*Y677246D01*
X53500Y676746D02*X53000Y677246D01*
X53500Y676746D02*X54500D01*
X55000Y677246D01*
Y678746D02*Y677246D01*
X31000Y703346D02*X35000D01*
X31000Y704846D02*Y702846D01*
Y704846D02*X31500Y705346D01*
X32500D01*
X33000Y704846D02*X32500Y705346D01*
X33000Y704846D02*Y703346D01*
X31000Y708046D02*X31500Y708546D01*
X31000Y708046D02*Y707046D01*
X31500Y706546D02*X31000Y707046D01*
X31500Y706546D02*X34500D01*
X35000Y707046D01*
X32800Y708046D02*X33300Y708546D01*
X32800Y708046D02*Y706546D01*
X35000Y708046D02*Y707046D01*
Y708046D02*X34500Y708546D01*
X33300D02*X34500D01*
X33500Y709746D02*X31000Y711746D01*
X33500Y712246D02*Y709746D01*
X31000Y711746D02*X35000D01*
X31000Y616346D02*X35000D01*
X31000Y617846D02*Y615846D01*
Y617846D02*X31500Y618346D01*
X32500D01*
X33000Y617846D02*X32500Y618346D01*
X33000Y617846D02*Y616346D01*
X31000Y621546D02*Y619546D01*
X33000D01*
X32500Y620046D01*
Y621046D02*Y620046D01*
Y621046D02*X33000Y621546D01*
X34500D01*
X35000Y621046D02*X34500Y621546D01*
X35000Y621046D02*Y620046D01*
X34500Y619546D02*X35000Y620046D01*
X31000Y624246D02*X31500Y624746D01*
X31000Y624246D02*Y623246D01*
X31500Y622746D02*X31000Y623246D01*
X31500Y622746D02*X34500D01*
X35000Y623246D01*
X32800Y624246D02*X33300Y624746D01*
X32800Y624246D02*Y622746D01*
X35000Y624246D02*Y623246D01*
Y624246D02*X34500Y624746D01*
X33300D02*X34500D01*
X233000Y713346D02*X237000D01*
X233000Y714846D02*Y712846D01*
Y714846D02*X233500Y715346D01*
X234500D01*
X235000Y714846D02*X234500Y715346D01*
X235000Y714846D02*Y713346D01*
X233000Y718046D02*X233500Y718546D01*
X233000Y718046D02*Y717046D01*
X233500Y716546D02*X233000Y717046D01*
X233500Y716546D02*X236500D01*
X237000Y717046D01*
X234800Y718046D02*X235300Y718546D01*
X234800Y718046D02*Y716546D01*
X237000Y718046D02*Y717046D01*
Y718046D02*X236500Y718546D01*
X235300D02*X236500D01*
X233500Y719746D02*X233000Y720246D01*
Y721746D02*Y720246D01*
Y721746D02*X233500Y722246D01*
X234500D01*
X237000Y719746D02*X234500Y722246D01*
X237000D02*Y719746D01*
X136000Y713846D02*X140000D01*
X136000Y715346D02*Y713346D01*
Y715346D02*X136500Y715846D01*
X137500D01*
X138000Y715346D02*X137500Y715846D01*
X138000Y715346D02*Y713846D01*
X136000Y718546D02*X136500Y719046D01*
X136000Y718546D02*Y717546D01*
X136500Y717046D02*X136000Y717546D01*
X136500Y717046D02*X139500D01*
X140000Y717546D01*
X137800Y718546D02*X138300Y719046D01*
X137800Y718546D02*Y717046D01*
X140000Y718546D02*Y717546D01*
Y718546D02*X139500Y719046D01*
X138300D02*X139500D01*
X136500Y720246D02*X136000Y720746D01*
Y721746D02*Y720746D01*
Y721746D02*X136500Y722246D01*
X140000Y721746D02*X139500Y722246D01*
X140000Y721746D02*Y720746D01*
X139500Y720246D02*X140000Y720746D01*
X137800Y721746D02*Y720746D01*
X136500Y722246D02*X137300D01*
X138300D02*X139500D01*
X138300D02*X137800Y721746D01*
X137300Y722246D02*X137800Y721746D01*
X132000Y616346D02*X136000D01*
X132000Y617846D02*Y615846D01*
Y617846D02*X132500Y618346D01*
X133500D01*
X134000Y617846D02*X133500Y618346D01*
X134000Y617846D02*Y616346D01*
X132000Y621546D02*Y619546D01*
X134000D01*
X133500Y620046D01*
Y621046D02*Y620046D01*
Y621046D02*X134000Y621546D01*
X135500D01*
X136000Y621046D02*X135500Y621546D01*
X136000Y621046D02*Y620046D01*
X135500Y619546D02*X136000Y620046D01*
X132000Y624746D02*Y622746D01*
X134000D01*
X133500Y623246D01*
Y624246D02*Y623246D01*
Y624246D02*X134000Y624746D01*
X135500D01*
X136000Y624246D02*X135500Y624746D01*
X136000Y624246D02*Y623246D01*
X135500Y622746D02*X136000Y623246D01*
X244800Y667346D02*Y666046D01*
X244100Y665346D02*X244800Y666046D01*
X241500Y665346D02*X244100D01*
X241500D02*X240800Y666046D01*
Y667346D02*Y666046D01*
X244300Y668546D02*X244800Y669046D01*
X243500Y668546D02*X244300D01*
X243500D02*X242800Y669246D01*
Y669846D02*Y669246D01*
Y669846D02*X243500Y670546D01*
X244300D01*
X244800Y670046D02*X244300Y670546D01*
X244800Y670046D02*Y669046D01*
X242100Y668546D02*X242800Y669246D01*
X241300Y668546D02*X242100D01*
X241300D02*X240800Y669046D01*
Y670046D02*Y669046D01*
Y670046D02*X241300Y670546D01*
X242100D01*
X242800Y669846D02*X242100Y670546D01*
X205000Y663846D02*Y660346D01*
Y663846D02*X204500Y664346D01*
X203500D02*X204500D01*
X203500D02*X203000Y663846D01*
Y660346D01*
X201800Y663846D02*X201300Y664346D01*
X201800Y663846D02*Y663046D01*
X201100Y662346D01*
X200500D02*X201100D01*
X200500D02*X199800Y663046D01*
Y663846D02*Y663046D01*
X200300Y664346D02*X199800Y663846D01*
X200300Y664346D02*X201300D01*
X201800Y661646D02*X201100Y662346D01*
X201800Y661646D02*Y660846D01*
X201300Y660346D01*
X200300D02*X201300D01*
X200300D02*X199800Y660846D01*
Y661646D02*Y660846D01*
X200500Y662346D02*X199800Y661646D01*
X232000Y616346D02*X236000D01*
X232000Y617846D02*Y615846D01*
Y617846D02*X232500Y618346D01*
X233500D01*
X234000Y617846D02*X233500Y618346D01*
X234000Y617846D02*Y616346D01*
X232000Y621546D02*Y619546D01*
X234000D01*
X233500Y620046D01*
Y621046D02*Y620046D01*
Y621046D02*X234000Y621546D01*
X235500D01*
X236000Y621046D02*X235500Y621546D01*
X236000Y621046D02*Y620046D01*
X235500Y619546D02*X236000Y620046D01*
X234500Y622746D02*X232000Y624746D01*
X234500Y625246D02*Y622746D01*
X232000Y624746D02*X236000D01*
X78000Y695346D02*X82000D01*
X78000Y696846D02*Y694846D01*
Y696846D02*X78500Y697346D01*
X79500D01*
X80000Y696846D02*X79500Y697346D01*
X80000Y696846D02*Y695346D01*
X82000Y699046D02*X78000Y701046D01*
Y698546D01*
X81500Y702246D02*X82000Y702746D01*
X78500Y702246D02*X81500D01*
X78500D02*X78000Y702746D01*
Y703746D02*Y702746D01*
Y703746D02*X78500Y704246D01*
X81500D01*
X82000Y703746D02*X81500Y704246D01*
X82000Y703746D02*Y702746D01*
X81000Y702246D02*X79000Y704246D01*
X32000Y314846D02*X36000D01*
X32000Y316346D02*Y314346D01*
Y316346D02*X32500Y316846D01*
X33500D01*
X34000Y316346D02*X33500Y316846D01*
X34000Y316346D02*Y314846D01*
X32500Y318046D02*X32000Y318546D01*
Y319546D02*Y318546D01*
Y319546D02*X32500Y320046D01*
X36000Y319546D02*X35500Y320046D01*
X36000Y319546D02*Y318546D01*
X35500Y318046D02*X36000Y318546D01*
X33800Y319546D02*Y318546D01*
X32500Y320046D02*X33300D01*
X34300D02*X35500D01*
X34300D02*X33800Y319546D01*
X33300Y320046D02*X33800Y319546D01*
X32500Y321246D02*X32000Y321746D01*
Y323246D02*Y321746D01*
Y323246D02*X32500Y323746D01*
X33500D01*
X36000Y321246D02*X33500Y323746D01*
X36000D02*Y321246D01*
X132000Y317346D02*X136000D01*
X132000Y318846D02*Y316846D01*
Y318846D02*X132500Y319346D01*
X133500D01*
X134000Y318846D02*X133500Y319346D01*
X134000Y318846D02*Y317346D01*
X132500Y320546D02*X132000Y321046D01*
Y322046D02*Y321046D01*
Y322046D02*X132500Y322546D01*
X136000Y322046D02*X135500Y322546D01*
X136000Y322046D02*Y321046D01*
X135500Y320546D02*X136000Y321046D01*
X133800Y322046D02*Y321046D01*
X132500Y322546D02*X133300D01*
X134300D02*X135500D01*
X134300D02*X133800Y322046D01*
X133300Y322546D02*X133800Y322046D01*
X132800Y323746D02*X132000Y324546D01*
X136000D01*
Y325246D02*Y323746D01*
X31000Y214346D02*X35000D01*
X31000Y215846D02*Y213846D01*
Y215846D02*X31500Y216346D01*
X32500D01*
X33000Y215846D02*X32500Y216346D01*
X33000Y215846D02*Y214346D01*
X31500Y217546D02*X31000Y218046D01*
Y219546D02*Y218046D01*
Y219546D02*X31500Y220046D01*
X32500D01*
X35000Y217546D02*X32500Y220046D01*
X35000D02*Y217546D01*
X33500Y221246D02*X31000Y223246D01*
X33500Y223746D02*Y221246D01*
X31000Y223246D02*X35000D01*
X131000Y215346D02*X135000D01*
X131000Y216846D02*Y214846D01*
Y216846D02*X131500Y217346D01*
X132500D01*
X133000Y216846D02*X132500Y217346D01*
X133000Y216846D02*Y215346D01*
X131500Y218546D02*X131000Y219046D01*
Y220546D02*Y219046D01*
Y220546D02*X131500Y221046D01*
X132500D01*
X135000Y218546D02*X132500Y221046D01*
X135000D02*Y218546D01*
X131500Y222246D02*X131000Y222746D01*
Y223746D02*Y222746D01*
Y223746D02*X131500Y224246D01*
X135000Y223746D02*X134500Y224246D01*
X135000Y223746D02*Y222746D01*
X134500Y222246D02*X135000Y222746D01*
X132800Y223746D02*Y222746D01*
X131500Y224246D02*X132300D01*
X133300D02*X134500D01*
X133300D02*X132800Y223746D01*
X132300Y224246D02*X132800Y223746D01*
X132000Y116346D02*X136000D01*
X132000Y117846D02*Y115846D01*
Y117846D02*X132500Y118346D01*
X133500D01*
X134000Y117846D02*X133500Y118346D01*
X134000Y117846D02*Y116346D01*
X132800Y119546D02*X132000Y120346D01*
X136000D01*
Y121046D02*Y119546D01*
X132000Y124246D02*Y122246D01*
X134000D01*
X133500Y122746D01*
Y123746D02*Y122746D01*
Y123746D02*X134000Y124246D01*
X135500D01*
X136000Y123746D02*X135500Y124246D01*
X136000Y123746D02*Y122746D01*
X135500Y122246D02*X136000Y122746D01*
X131000Y17346D02*X135000D01*
X131000Y18846D02*Y16846D01*
Y18846D02*X131500Y19346D01*
X132500D01*
X133000Y18846D02*X132500Y19346D01*
X133000Y18846D02*Y17346D01*
X135000Y21046D02*X131000Y23046D01*
Y20546D01*
X243800Y253846D02*Y252546D01*
X243100Y251846D02*X243800Y252546D01*
X240500Y251846D02*X243100D01*
X240500D02*X239800Y252546D01*
Y253846D02*Y252546D01*
X242300Y255046D02*X239800Y257046D01*
X242300Y257546D02*Y255046D01*
X239800Y257046D02*X243800D01*
X207000Y249846D02*Y246346D01*
Y249846D02*X206500Y250346D01*
X205500D02*X206500D01*
X205500D02*X205000Y249846D01*
Y246346D01*
X203800Y248846D02*X201800Y246346D01*
X201300Y248846D02*X203800D01*
X201800Y250346D02*Y246346D01*
X207000Y349846D02*Y346346D01*
Y349846D02*X206500Y350346D01*
X205500D02*X206500D01*
X205500D02*X205000Y349846D01*
Y346346D01*
X201800D02*X203800D01*
Y348346D02*Y346346D01*
Y348346D02*X203300Y347846D01*
X202300D02*X203300D01*
X202300D02*X201800Y348346D01*
Y349846D02*Y348346D01*
X202300Y350346D02*X201800Y349846D01*
X202300Y350346D02*X203300D01*
X203800Y349846D02*X203300Y350346D01*
X231000Y316346D02*X235000D01*
X231000Y317846D02*Y315846D01*
Y317846D02*X231500Y318346D01*
X232500D01*
X233000Y317846D02*X232500Y318346D01*
X233000Y317846D02*Y316346D01*
X231500Y319546D02*X231000Y320046D01*
Y321046D02*Y320046D01*
Y321046D02*X231500Y321546D01*
X235000Y321046D02*X234500Y321546D01*
X235000Y321046D02*Y320046D01*
X234500Y319546D02*X235000Y320046D01*
X232800Y321046D02*Y320046D01*
X231500Y321546D02*X232300D01*
X233300D02*X234500D01*
X233300D02*X232800Y321046D01*
X232300Y321546D02*X232800Y321046D01*
X234500Y322746D02*X235000Y323246D01*
X231500Y322746D02*X234500D01*
X231500D02*X231000Y323246D01*
Y324246D02*Y323246D01*
Y324246D02*X231500Y324746D01*
X234500D01*
X235000Y324246D02*X234500Y324746D01*
X235000Y324246D02*Y323246D01*
X234000Y322746D02*X232000Y324746D01*
X243800Y153346D02*Y152046D01*
X243100Y151346D02*X243800Y152046D01*
X240500Y151346D02*X243100D01*
X240500D02*X239800Y152046D01*
Y153346D02*Y152046D01*
X240300Y154546D02*X239800Y155046D01*
Y156046D02*Y155046D01*
Y156046D02*X240300Y156546D01*
X243800Y156046D02*X243300Y156546D01*
X243800Y156046D02*Y155046D01*
X243300Y154546D02*X243800Y155046D01*
X241600Y156046D02*Y155046D01*
X240300Y156546D02*X241100D01*
X242100D02*X243300D01*
X242100D02*X241600Y156046D01*
X241100Y156546D02*X241600Y156046D01*
X207000Y149846D02*Y146346D01*
Y149846D02*X206500Y150346D01*
X205500D02*X206500D01*
X205500D02*X205000Y149846D01*
Y146346D01*
X203800Y146846D02*X203300Y146346D01*
X202300D02*X203300D01*
X202300D02*X201800Y146846D01*
X202300Y150346D02*X201800Y149846D01*
X202300Y150346D02*X203300D01*
X203800Y149846D02*X203300Y150346D01*
X202300Y148146D02*X203300D01*
X201800Y147646D02*Y146846D01*
Y149846D02*Y148646D01*
X202300Y148146D01*
X201800Y147646D02*X202300Y148146D01*
X231000Y215346D02*X235000D01*
X231000Y216846D02*Y214846D01*
Y216846D02*X231500Y217346D01*
X232500D01*
X233000Y216846D02*X232500Y217346D01*
X233000Y216846D02*Y215346D01*
X231500Y218546D02*X231000Y219046D01*
Y220546D02*Y219046D01*
Y220546D02*X231500Y221046D01*
X232500D01*
X235000Y218546D02*X232500Y221046D01*
X235000D02*Y218546D01*
X231500Y222246D02*X231000Y222746D01*
Y224246D02*Y222746D01*
Y224246D02*X231500Y224746D01*
X232500D01*
X235000Y222246D02*X232500Y224746D01*
X235000D02*Y222246D01*
X78000Y45346D02*X82000D01*
X78000Y46846D02*Y44846D01*
Y46846D02*X78500Y47346D01*
X79500D01*
X80000Y46846D02*X79500Y47346D01*
X80000Y46846D02*Y45346D01*
X78000Y50046D02*X78500Y50546D01*
X78000Y50046D02*Y49046D01*
X78500Y48546D02*X78000Y49046D01*
X78500Y48546D02*X81500D01*
X82000Y49046D01*
X79800Y50046D02*X80300Y50546D01*
X79800Y50046D02*Y48546D01*
X82000Y50046D02*Y49046D01*
Y50046D02*X81500Y50546D01*
X80300D02*X81500D01*
X82000Y52246D02*X78000Y54246D01*
Y51746D01*
X53000Y70346D02*X57000D01*
X53000Y71846D02*Y69846D01*
Y71846D02*X53500Y72346D01*
X54500D01*
X55000Y71846D02*X54500Y72346D01*
X55000Y71846D02*Y70346D01*
X53000Y75046D02*X53500Y75546D01*
X53000Y75046D02*Y74046D01*
X53500Y73546D02*X53000Y74046D01*
X53500Y73546D02*X56500D01*
X57000Y74046D01*
X54800Y75046D02*X55300Y75546D01*
X54800Y75046D02*Y73546D01*
X57000Y75046D02*Y74046D01*
Y75046D02*X56500Y75546D01*
X55300D02*X56500D01*
Y76746D02*X57000Y77246D01*
X55700Y76746D02*X56500D01*
X55700D02*X55000Y77446D01*
Y78046D02*Y77446D01*
Y78046D02*X55700Y78746D01*
X56500D01*
X57000Y78246D02*X56500Y78746D01*
X57000Y78246D02*Y77246D01*
X54300Y76746D02*X55000Y77446D01*
X53500Y76746D02*X54300D01*
X53500D02*X53000Y77246D01*
Y78246D02*Y77246D01*
Y78246D02*X53500Y78746D01*
X54300D01*
X55000Y78046D02*X54300Y78746D01*
X33000Y117346D02*X37000D01*
X33000Y118846D02*Y116846D01*
Y118846D02*X33500Y119346D01*
X34500D01*
X35000Y118846D02*X34500Y119346D01*
X35000Y118846D02*Y117346D01*
X33800Y120546D02*X33000Y121346D01*
X37000D01*
Y122046D02*Y120546D01*
X33000Y124746D02*X33500Y125246D01*
X33000Y124746D02*Y123746D01*
X33500Y123246D02*X33000Y123746D01*
X33500Y123246D02*X36500D01*
X37000Y123746D01*
X34800Y124746D02*X35300Y125246D01*
X34800Y124746D02*Y123246D01*
X37000Y124746D02*Y123746D01*
Y124746D02*X36500Y125246D01*
X35300D02*X36500D01*
X31000Y17346D02*X35000D01*
X31000Y18846D02*Y16846D01*
Y18846D02*X31500Y19346D01*
X32500D01*
X33000Y18846D02*X32500Y19346D01*
X33000Y18846D02*Y17346D01*
X34500Y20546D02*X35000Y21046D01*
X33700Y20546D02*X34500D01*
X33700D02*X33000Y21246D01*
Y21846D02*Y21246D01*
Y21846D02*X33700Y22546D01*
X34500D01*
X35000Y22046D02*X34500Y22546D01*
X35000Y22046D02*Y21046D01*
X32300Y20546D02*X33000Y21246D01*
X31500Y20546D02*X32300D01*
X31500D02*X31000Y21046D01*
Y22046D02*Y21046D01*
Y22046D02*X31500Y22546D01*
X32300D01*
X33000Y21846D02*X32300Y22546D01*
X423200Y655646D02*Y654346D01*
X423900Y656346D02*X423200Y655646D01*
X423900Y656346D02*X426500D01*
X427200Y655646D01*
Y654346D01*
X423200Y652646D02*X425200Y651146D01*
X426700D01*
X427200Y651646D02*X426700Y651146D01*
X427200Y652646D02*Y651646D01*
X426700Y653146D02*X427200Y652646D01*
X425700Y653146D02*X426700D01*
X425700D02*X425200Y652646D01*
Y651146D01*
X411000Y664346D02*Y660846D01*
Y664346D02*X410500Y664846D01*
X409500D02*X410500D01*
X409500D02*X409000Y664346D01*
Y660846D01*
X407300Y664846D02*X405800Y662846D01*
Y661346D01*
X406300Y660846D02*X405800Y661346D01*
X406300Y660846D02*X407300D01*
X407800Y661346D02*X407300Y660846D01*
X407800Y662346D02*Y661346D01*
Y662346D02*X407300Y662846D01*
X405800D02*X407300D01*
X433000Y713346D02*X437000D01*
X433000Y714846D02*Y712846D01*
Y714846D02*X433500Y715346D01*
X434500D01*
X435000Y714846D02*X434500Y715346D01*
X435000Y714846D02*Y713346D01*
X433000Y718046D02*X433500Y718546D01*
X433000Y718046D02*Y717046D01*
X433500Y716546D02*X433000Y717046D01*
X433500Y716546D02*X436500D01*
X437000Y717046D01*
X434800Y718046D02*X435300Y718546D01*
X434800Y718046D02*Y716546D01*
X437000Y718046D02*Y717046D01*
Y718046D02*X436500Y718546D01*
X435300D02*X436500D01*
Y719746D02*X437000Y720246D01*
X433500Y719746D02*X436500D01*
X433500D02*X433000Y720246D01*
Y721246D02*Y720246D01*
Y721246D02*X433500Y721746D01*
X436500D01*
X437000Y721246D02*X436500Y721746D01*
X437000Y721246D02*Y720246D01*
X436000Y719746D02*X434000Y721746D01*
X332000Y716346D02*X336000D01*
X332000Y717846D02*Y715846D01*
Y717846D02*X332500Y718346D01*
X333500D01*
X334000Y717846D02*X333500Y718346D01*
X334000Y717846D02*Y716346D01*
X332000Y721046D02*X332500Y721546D01*
X332000Y721046D02*Y720046D01*
X332500Y719546D02*X332000Y720046D01*
X332500Y719546D02*X335500D01*
X336000Y720046D01*
X333800Y721046D02*X334300Y721546D01*
X333800Y721046D02*Y719546D01*
X336000Y721046D02*Y720046D01*
Y721046D02*X335500Y721546D01*
X334300D02*X335500D01*
X332800Y722746D02*X332000Y723546D01*
X336000D01*
Y724246D02*Y722746D01*
X431000Y614346D02*X435000D01*
X431000Y615846D02*Y613846D01*
Y615846D02*X431500Y616346D01*
X432500D01*
X433000Y615846D02*X432500Y616346D01*
X433000Y615846D02*Y614346D01*
X431000Y619546D02*Y617546D01*
X433000D01*
X432500Y618046D01*
Y619046D02*Y618046D01*
Y619046D02*X433000Y619546D01*
X434500D01*
X435000Y619046D02*X434500Y619546D01*
X435000Y619046D02*Y618046D01*
X434500Y617546D02*X435000Y618046D01*
X431500Y620746D02*X431000Y621246D01*
Y622746D02*Y621246D01*
Y622746D02*X431500Y623246D01*
X432500D01*
X435000Y620746D02*X432500Y623246D01*
X435000D02*Y620746D01*
X732000Y616346D02*X736000D01*
X732000Y617846D02*Y615846D01*
Y617846D02*X732500Y618346D01*
X733500D01*
X734000Y617846D02*X733500Y618346D01*
X734000Y617846D02*Y616346D01*
X734500Y619546D02*X732000Y621546D01*
X734500Y622046D02*Y619546D01*
X732000Y621546D02*X736000D01*
Y623746D02*X734000Y625246D01*
X732500D02*X734000D01*
X732000Y624746D02*X732500Y625246D01*
X732000Y624746D02*Y623746D01*
X732500Y623246D02*X732000Y623746D01*
X732500Y623246D02*X733500D01*
X734000Y623746D01*
Y625246D02*Y623746D01*
X732000Y516846D02*X736000D01*
X732000Y518346D02*Y516346D01*
Y518346D02*X732500Y518846D01*
X733500D01*
X734000Y518346D02*X733500Y518846D01*
X734000Y518346D02*Y516846D01*
X734500Y520046D02*X732000Y522046D01*
X734500Y522546D02*Y520046D01*
X732000Y522046D02*X736000D01*
X732800Y523746D02*X732000Y524546D01*
X736000D01*
Y525246D02*Y523746D01*
X703000Y670346D02*X707000D01*
X703000Y671846D02*Y669846D01*
Y671846D02*X703500Y672346D01*
X704500D01*
X705000Y671846D02*X704500Y672346D01*
X705000Y671846D02*Y670346D01*
X707000Y674046D02*X703000Y676046D01*
Y673546D01*
X703500Y677246D02*X703000Y677746D01*
Y679246D02*Y677746D01*
Y679246D02*X703500Y679746D01*
X704500D01*
X707000Y677246D02*X704500Y679746D01*
X707000D02*Y677246D01*
X678000Y695346D02*X682000D01*
X678000Y696846D02*Y694846D01*
Y696846D02*X678500Y697346D01*
X679500D01*
X680000Y696846D02*X679500Y697346D01*
X680000Y696846D02*Y695346D01*
X682000Y699046D02*X678000Y701046D01*
Y698546D01*
X678800Y702246D02*X678000Y703046D01*
X682000D01*
Y703746D02*Y702246D01*
X732000Y713346D02*X736000D01*
X732000Y714846D02*Y712846D01*
Y714846D02*X732500Y715346D01*
X733500D01*
X734000Y714846D02*X733500Y715346D01*
X734000Y714846D02*Y713346D01*
X732000Y718546D02*Y716546D01*
X734000D01*
X733500Y717046D01*
Y718046D02*Y717046D01*
Y718046D02*X734000Y718546D01*
X735500D01*
X736000Y718046D02*X735500Y718546D01*
X736000Y718046D02*Y717046D01*
X735500Y716546D02*X736000Y717046D01*
Y720246D02*X732000Y722246D01*
Y719746D01*
X632000Y713346D02*X636000D01*
X632000Y714846D02*Y712846D01*
Y714846D02*X632500Y715346D01*
X633500D01*
X634000Y714846D02*X633500Y715346D01*
X634000Y714846D02*Y713346D01*
X632000Y718546D02*Y716546D01*
X634000D01*
X633500Y717046D01*
Y718046D02*Y717046D01*
Y718046D02*X634000Y718546D01*
X635500D01*
X636000Y718046D02*X635500Y718546D01*
X636000Y718046D02*Y717046D01*
X635500Y716546D02*X636000Y717046D01*
X635500Y719746D02*X636000Y720246D01*
X634700Y719746D02*X635500D01*
X634700D02*X634000Y720446D01*
Y721046D02*Y720446D01*
Y721046D02*X634700Y721746D01*
X635500D01*
X636000Y721246D02*X635500Y721746D01*
X636000Y721246D02*Y720246D01*
X633300Y719746D02*X634000Y720446D01*
X632500Y719746D02*X633300D01*
X632500D02*X632000Y720246D01*
Y721246D02*Y720246D01*
Y721246D02*X632500Y721746D01*
X633300D01*
X634000Y721046D02*X633300Y721746D01*
X632000Y616346D02*X636000D01*
X632000Y617846D02*Y615846D01*
Y617846D02*X632500Y618346D01*
X633500D01*
X634000Y617846D02*X633500Y618346D01*
X634000Y617846D02*Y616346D01*
X632000Y621546D02*Y619546D01*
X634000D01*
X633500Y620046D01*
Y621046D02*Y620046D01*
Y621046D02*X634000Y621546D01*
X635500D01*
X636000Y621046D02*X635500Y621546D01*
X636000Y621046D02*Y620046D01*
X635500Y619546D02*X636000Y620046D01*
X635500Y622746D02*X636000Y623246D01*
X632500Y622746D02*X635500D01*
X632500D02*X632000Y623246D01*
Y624246D02*Y623246D01*
Y624246D02*X632500Y624746D01*
X635500D01*
X636000Y624246D02*X635500Y624746D01*
X636000Y624246D02*Y623246D01*
X635000Y622746D02*X633000Y624746D01*
X532000Y712346D02*X536000D01*
X532000Y713846D02*Y711846D01*
Y713846D02*X532500Y714346D01*
X533500D01*
X534000Y713846D02*X533500Y714346D01*
X534000Y713846D02*Y712346D01*
X532000Y717546D02*Y715546D01*
X534000D01*
X533500Y716046D01*
Y717046D02*Y716046D01*
Y717046D02*X534000Y717546D01*
X535500D01*
X536000Y717046D02*X535500Y717546D01*
X536000Y717046D02*Y716046D01*
X535500Y715546D02*X536000Y716046D01*
Y719246D02*X534000Y720746D01*
X532500D02*X534000D01*
X532000Y720246D02*X532500Y720746D01*
X532000Y720246D02*Y719246D01*
X532500Y718746D02*X532000Y719246D01*
X532500Y718746D02*X533500D01*
X534000Y719246D01*
Y720746D02*Y719246D01*
X631000Y515803D02*X635000D01*
X631000Y517303D02*Y515303D01*
Y517303D02*X631500Y517803D01*
X632500D01*
X633000Y517303D02*X632500Y517803D01*
X633000Y517303D02*Y515803D01*
X633500Y519003D02*X631000Y521003D01*
X633500Y521503D02*Y519003D01*
X631000Y521003D02*X635000D01*
X631500Y522703D02*X631000Y523203D01*
Y524703D02*Y523203D01*
Y524703D02*X631500Y525203D01*
X632500D01*
X635000Y522703D02*X632500Y525203D01*
X635000D02*Y522703D01*
X632000Y415346D02*X636000D01*
X632000Y416846D02*Y414846D01*
Y416846D02*X632500Y417346D01*
X633500D01*
X634000Y416846D02*X633500Y417346D01*
X634000Y416846D02*Y415346D01*
X632500Y418546D02*X632000Y419046D01*
Y420046D02*Y419046D01*
Y420046D02*X632500Y420546D01*
X636000Y420046D02*X635500Y420546D01*
X636000Y420046D02*Y419046D01*
X635500Y418546D02*X636000Y419046D01*
X633800Y420046D02*Y419046D01*
X632500Y420546D02*X633300D01*
X634300D02*X635500D01*
X634300D02*X633800Y420046D01*
X633300Y420546D02*X633800Y420046D01*
X634500Y421746D02*X632000Y423746D01*
X634500Y424246D02*Y421746D01*
X632000Y423746D02*X636000D01*
X732000Y314346D02*X736000D01*
X732000Y315846D02*Y313846D01*
Y315846D02*X732500Y316346D01*
X733500D01*
X734000Y315846D02*X733500Y316346D01*
X734000Y315846D02*Y314346D01*
X732500Y317546D02*X732000Y318046D01*
Y319546D02*Y318046D01*
Y319546D02*X732500Y320046D01*
X733500D01*
X736000Y317546D02*X733500Y320046D01*
X736000D02*Y317546D01*
X732000Y323246D02*Y321246D01*
X734000D01*
X733500Y321746D01*
Y322746D02*Y321746D01*
Y322746D02*X734000Y323246D01*
X735500D01*
X736000Y322746D02*X735500Y323246D01*
X736000Y322746D02*Y321746D01*
X735500Y321246D02*X736000Y321746D01*
X732000Y414846D02*X736000D01*
X732000Y416346D02*Y414346D01*
Y416346D02*X732500Y416846D01*
X733500D01*
X734000Y416346D02*X733500Y416846D01*
X734000Y416346D02*Y414846D01*
X732500Y418046D02*X732000Y418546D01*
Y419546D02*Y418546D01*
Y419546D02*X732500Y420046D01*
X736000Y419546D02*X735500Y420046D01*
X736000Y419546D02*Y418546D01*
X735500Y418046D02*X736000Y418546D01*
X733800Y419546D02*Y418546D01*
X732500Y420046D02*X733300D01*
X734300D02*X735500D01*
X734300D02*X733800Y419546D01*
X733300Y420046D02*X733800Y419546D01*
X732500Y421246D02*X732000Y421746D01*
Y422746D02*Y421746D01*
Y422746D02*X732500Y423246D01*
X736000Y422746D02*X735500Y423246D01*
X736000Y422746D02*Y421746D01*
X735500Y421246D02*X736000Y421746D01*
X733800Y422746D02*Y421746D01*
X732500Y423246D02*X733300D01*
X734300D02*X735500D01*
X734300D02*X733800Y422746D01*
X733300Y423246D02*X733800Y422746D01*
X532000Y414846D02*X536000D01*
X532000Y416346D02*Y414346D01*
Y416346D02*X532500Y416846D01*
X533500D01*
X534000Y416346D02*X533500Y416846D01*
X534000Y416346D02*Y414846D01*
X532500Y418046D02*X532000Y418546D01*
Y419546D02*Y418546D01*
Y419546D02*X532500Y420046D01*
X536000Y419546D02*X535500Y420046D01*
X536000Y419546D02*Y418546D01*
X535500Y418046D02*X536000Y418546D01*
X533800Y419546D02*Y418546D01*
X532500Y420046D02*X533300D01*
X534300D02*X535500D01*
X534300D02*X533800Y419546D01*
X533300Y420046D02*X533800Y419546D01*
X532000Y423246D02*Y421246D01*
X534000D01*
X533500Y421746D01*
Y422746D02*Y421746D01*
Y422746D02*X534000Y423246D01*
X535500D01*
X536000Y422746D02*X535500Y423246D01*
X536000Y422746D02*Y421746D01*
X535500Y421246D02*X536000Y421746D01*
X631000Y314346D02*X635000D01*
X631000Y315846D02*Y313846D01*
Y315846D02*X631500Y316346D01*
X632500D01*
X633000Y315846D02*X632500Y316346D01*
X633000Y315846D02*Y314346D01*
X631500Y317546D02*X631000Y318046D01*
Y319546D02*Y318046D01*
Y319546D02*X631500Y320046D01*
X632500D01*
X635000Y317546D02*X632500Y320046D01*
X635000D02*Y317546D01*
X631000Y322746D02*X631500Y323246D01*
X631000Y322746D02*Y321746D01*
X631500Y321246D02*X631000Y321746D01*
X631500Y321246D02*X634500D01*
X635000Y321746D01*
X632800Y322746D02*X633300Y323246D01*
X632800Y322746D02*Y321246D01*
X635000Y322746D02*Y321746D01*
Y322746D02*X634500Y323246D01*
X633300D02*X634500D01*
M02*
