G04 start of page 2 for group 0 idx 0 *
G04 Title: (unknown), top *
G04 Creator: pcb v4.0.2-g2d695f8b *
G04 CreationDate: Sat Jan 27 08:31:28 2018 UTC *
G04 For: zhenke *
G04 Format: Gerber/RS-274X *
G04 PCB-Dimensions (mil): 7480.31 7283.46 *
G04 PCB-Coordinate-Origin: lower left *
%MOIN*%
%FSLAX25Y25*%
%LNTOP*%
%ADD24C,0.0430*%
%ADD23C,0.0380*%
%ADD22C,0.0300*%
%ADD21C,0.0420*%
%ADD20C,0.0280*%
%ADD19C,0.1180*%
%ADD18C,0.0350*%
%ADD17C,0.0850*%
%ADD16C,0.0980*%
%ADD15C,0.1000*%
%ADD14C,0.0750*%
%ADD13C,0.0900*%
%ADD12C,0.0800*%
%ADD11C,0.0001*%
G54D11*G36*
X208000Y74346D02*Y66346D01*
X216000D01*
Y74346D01*
X208000D01*
G37*
G54D12*X202000Y70346D03*
X192000D03*
X182000D03*
X172000D03*
Y40346D03*
X182000D03*
X162000Y70346D03*
Y40346D03*
X152000Y70346D03*
Y40346D03*
X142000Y70346D03*
Y40346D03*
G54D13*X127000Y19846D03*
G54D12*X192000Y40346D03*
X202000D03*
X212000D03*
G54D13*X227000Y19846D03*
G54D11*G36*
X208000Y166346D02*Y158346D01*
X216000D01*
Y166346D01*
X208000D01*
G37*
G54D12*X202000Y162346D03*
X192000D03*
X182000D03*
X172000D03*
X162000D03*
X152000D03*
X142000D03*
Y132346D03*
X152000D03*
X162000D03*
G54D13*X127000Y119846D03*
G54D12*X172000Y132346D03*
X182000D03*
X192000D03*
X202000D03*
X212000D03*
G54D13*X52000Y69846D03*
X77000Y44846D03*
X27000Y19846D03*
G54D11*G36*
X427250Y545596D02*Y538096D01*
X434750D01*
Y545596D01*
X427250D01*
G37*
G54D14*X431000Y551846D03*
G54D11*G36*
X410000Y566846D02*Y558846D01*
X418000D01*
Y566846D01*
X410000D01*
G37*
G54D12*X404000Y562846D03*
Y532846D03*
X414000D03*
X394000Y562846D03*
Y532846D03*
X384000Y562846D03*
Y532846D03*
X374000Y562846D03*
Y532846D03*
X364000Y562846D03*
Y532846D03*
X354000Y562846D03*
X344000D03*
X334000D03*
Y532846D03*
X344000D03*
X354000D03*
G54D11*G36*
X427250Y669596D02*Y662096D01*
X434750D01*
Y669596D01*
X427250D01*
G37*
G54D13*X527000Y719846D03*
X427000D03*
G54D14*X431000Y655846D03*
G54D11*G36*
X412000Y680846D02*Y672846D01*
X420000D01*
Y680846D01*
X412000D01*
G37*
G54D12*X406000Y676846D03*
Y646846D03*
G54D13*X727000Y519846D03*
G54D15*X627000D03*
G54D13*X527000D03*
X427000D03*
X327000D03*
G54D12*X416000Y646846D03*
G54D13*X727000Y619846D03*
G54D15*X627000D03*
G54D13*X527000D03*
X427000D03*
X702000Y669846D03*
X677000Y694846D03*
X727000Y719846D03*
G54D15*X627000D03*
G54D11*G36*
X569500Y29346D02*Y22346D01*
X576500D01*
Y29346D01*
X569500D01*
G37*
G54D12*X563000Y25846D03*
X553000D03*
G54D11*G36*
X579500Y29346D02*Y22346D01*
X586500D01*
Y29346D01*
X579500D01*
G37*
G54D12*X593000Y25846D03*
G54D13*X527000Y19846D03*
G54D11*G36*
X679600Y24746D02*Y14946D01*
X689400D01*
Y24746D01*
X679600D01*
G37*
G54D16*X644500Y19846D03*
G54D11*G36*
X695750Y23596D02*Y16096D01*
X703250D01*
Y23596D01*
X695750D01*
G37*
G54D17*X709500Y19846D03*
G54D13*X727000D03*
G54D15*X627000D03*
G54D13*X677000Y44846D03*
G54D11*G36*
X545250Y97596D02*Y90096D01*
X552750D01*
Y97596D01*
X545250D01*
G37*
G54D14*X549000Y83846D03*
G54D13*X527000Y319846D03*
Y219846D03*
Y119846D03*
G54D11*G36*
X680500Y132846D02*Y124846D01*
X688500D01*
Y132846D01*
X680500D01*
G37*
G54D13*X727000Y119846D03*
G54D12*X674500Y128846D03*
G54D15*X627000Y319846D03*
Y219846D03*
Y119846D03*
G54D13*X727000Y219846D03*
Y319846D03*
X702000Y69846D03*
X727000Y419846D03*
G54D15*X627000D03*
G54D13*X527000D03*
G54D11*G36*
X510500Y97846D02*Y89846D01*
X518500D01*
Y97846D01*
X510500D01*
G37*
G54D12*X504500Y93846D03*
X494500D03*
X484500D03*
X474500D03*
X464500D03*
X454500D03*
X444500D03*
G54D13*X427000Y119846D03*
Y419846D03*
Y319846D03*
Y219846D03*
G54D12*X444500Y63846D03*
X454500D03*
X464500D03*
X474500D03*
X484500D03*
X494500D03*
X504500D03*
X514500D03*
G54D11*G36*
X523250Y77596D02*Y70096D01*
X530750D01*
Y77596D01*
X523250D01*
G37*
G54D14*X527000Y83846D03*
G54D11*G36*
X580500Y73846D02*Y65846D01*
X588500D01*
Y73846D01*
X580500D01*
G37*
G54D12*X604500Y69846D03*
G54D13*X427000Y19846D03*
G54D12*X172000Y562346D03*
Y532346D03*
X162000Y562346D03*
Y532346D03*
X152000Y562346D03*
Y532346D03*
X142000Y562346D03*
Y532346D03*
G54D13*X127000Y519846D03*
X27000D03*
G54D11*G36*
X208000Y466346D02*Y458346D01*
X216000D01*
Y466346D01*
X208000D01*
G37*
G54D12*X202000Y462346D03*
X192000D03*
Y432346D03*
X202000D03*
X212000D03*
G54D11*G36*
X233250Y444596D02*Y437096D01*
X240750D01*
Y444596D01*
X233250D01*
G37*
G54D14*X237000Y450846D03*
G54D12*X182000Y462346D03*
Y432346D03*
X172000Y462346D03*
Y432346D03*
X162000Y462346D03*
Y432346D03*
X152000Y462346D03*
X142000D03*
Y432346D03*
X152000D03*
G54D11*G36*
X208000Y566346D02*Y558346D01*
X216000D01*
Y566346D01*
X208000D01*
G37*
G54D12*X202000Y562346D03*
X192000D03*
X182000D03*
Y532346D03*
X192000D03*
X202000D03*
X212000D03*
G54D11*G36*
X233250Y546596D02*Y539096D01*
X240750D01*
Y546596D01*
X233250D01*
G37*
G54D14*X237000Y552846D03*
G54D13*X227000Y519846D03*
X327000Y419846D03*
X227000D03*
X127000D03*
X27000D03*
G54D12*X396000Y676846D03*
X386000D03*
X376000D03*
X366000D03*
X356000D03*
X346000D03*
Y646846D03*
X356000D03*
X376000D03*
X386000D03*
X396000D03*
G54D13*X327000Y719846D03*
Y619846D03*
G54D12*X366000Y646846D03*
G54D11*G36*
X233250Y659596D02*Y652096D01*
X240750D01*
Y659596D01*
X233250D01*
G37*
G54D14*X237000Y665846D03*
G54D13*X227000Y619846D03*
G54D11*G36*
X206000Y680346D02*Y672346D01*
X214000D01*
Y680346D01*
X206000D01*
G37*
G54D12*X200000Y676346D03*
X190000D03*
X180000D03*
X170000D03*
Y646346D03*
X180000D03*
X190000D03*
X200000D03*
X160000Y676346D03*
Y646346D03*
X150000Y676346D03*
Y646346D03*
X210000D03*
G54D13*X227000Y719846D03*
G54D12*X140000Y676346D03*
Y646346D03*
G54D13*X127000Y719846D03*
Y619846D03*
X77000Y694846D03*
X52000Y669846D03*
X27000Y719846D03*
Y619846D03*
G54D11*G36*
X232250Y145596D02*Y138096D01*
X239750D01*
Y145596D01*
X232250D01*
G37*
G54D14*X236000Y151846D03*
G54D11*G36*
X232250Y54596D02*Y47096D01*
X239750D01*
Y54596D01*
X232250D01*
G37*
G54D14*X236000Y60846D03*
G54D11*G36*
X233250Y346596D02*Y339096D01*
X240750D01*
Y346596D01*
X233250D01*
G37*
G54D14*X237000Y352846D03*
G54D13*X227000Y119846D03*
G54D11*G36*
X232250Y246096D02*Y238596D01*
X239750D01*
Y246096D01*
X232250D01*
G37*
G54D14*X236000Y252346D03*
G54D11*G36*
X208000Y266346D02*Y258346D01*
X216000D01*
Y266346D01*
X208000D01*
G37*
G54D12*X212000Y232346D03*
G54D13*X227000Y219846D03*
X327000D03*
Y119846D03*
Y19846D03*
G54D12*X202000Y262346D03*
X192000D03*
X182000D03*
X172000D03*
X162000D03*
X152000D03*
X142000D03*
Y232346D03*
X152000D03*
X162000D03*
X172000D03*
G54D13*X127000Y219846D03*
G54D12*X182000Y232346D03*
X192000D03*
X202000D03*
G54D11*G36*
X208000Y366346D02*Y358346D01*
X216000D01*
Y366346D01*
X208000D01*
G37*
G54D12*X202000Y362346D03*
X192000D03*
X182000D03*
X172000D03*
X162000D03*
X152000D03*
X142000D03*
X152000Y332346D03*
X162000D03*
X172000D03*
X182000D03*
X192000D03*
X202000D03*
X212000D03*
G54D13*X227000Y319846D03*
G54D12*X142000Y332346D03*
G54D13*X27000Y319846D03*
X127000D03*
X327000D03*
X27000Y219846D03*
Y119846D03*
G54D12*X202000Y519846D03*
X192000D03*
X182000D03*
X172000Y511846D03*
Y519846D03*
X162000Y511846D03*
Y519846D03*
X142000D03*
X64000Y669846D03*
X129000Y665846D03*
X131000Y553846D03*
X200000Y636346D03*
X190000D03*
X180000D03*
X170000D03*
X160000D03*
X227000Y562346D03*
X89000Y694846D03*
X228000Y675846D03*
X386000Y635846D03*
X366000Y627846D03*
X406000Y636846D03*
X666000Y694846D03*
X691000Y669846D03*
X333000Y665846D03*
X366000Y686846D03*
X416000D03*
X406000D03*
X396000D03*
X386000D03*
X376000D03*
X356000D03*
X344000Y519846D03*
X354000D03*
X364000D03*
X374000D03*
X384000D03*
X394000D03*
X404000D03*
X414000D03*
Y572846D03*
X404000D03*
X394000D03*
X344000D03*
X374000D03*
X384000D03*
X364000D03*
X354000D03*
X701000Y81846D03*
X666000Y44846D03*
X674000Y113846D03*
X685000D03*
X644000Y36846D03*
X685000Y143846D03*
X674000D03*
X685000Y176846D03*
X675000D03*
X627000Y49846D03*
X624500Y69846D03*
X562000Y94846D03*
X505000Y103846D03*
X548000Y36846D03*
X537000Y94846D03*
X504000Y8846D03*
X474000Y103846D03*
X484000D03*
X494000D03*
Y19846D03*
X454000Y103846D03*
X464000D03*
X434000Y83846D03*
X484000Y51846D03*
X453000Y46846D03*
X475000D03*
X360000Y19846D03*
X462000D03*
X227000Y68846D03*
X172000Y24846D03*
X182000D03*
X162000D03*
X202000Y29846D03*
Y122846D03*
X227000Y163846D03*
X192000Y122346D03*
X259000Y19846D03*
X202000Y219846D03*
Y319846D03*
Y421846D03*
X227000Y462846D03*
Y363846D03*
Y262346D03*
X172000Y218846D03*
X142000D03*
X162000Y211346D03*
Y218846D03*
X172000Y211346D03*
X182000Y218846D03*
X192000D03*
X172000Y311346D03*
X162000D03*
X182000Y318846D03*
X192000D03*
X131000Y252846D03*
Y451846D03*
X172000Y413846D03*
Y421846D03*
Y318846D03*
X142000D03*
X162000D03*
X131000Y353846D03*
X192000Y421846D03*
X182000D03*
X162000Y413846D03*
Y421846D03*
X142000D03*
Y24846D03*
X94000Y19846D03*
X77000Y56846D03*
X131000Y60846D03*
X52000Y82846D03*
X131000Y152846D03*
X142000Y121846D03*
X182000D03*
X172000Y114846D03*
Y122346D03*
X162000Y114846D03*
Y122346D03*
X60000Y19846D03*
G54D18*G54D19*G54D18*G54D19*G54D18*G54D19*G54D18*G54D19*G54D18*G54D20*G54D21*G54D20*G54D21*G54D20*G54D21*G54D20*G54D21*G54D22*G54D20*G54D22*G54D21*G54D22*G54D20*G54D21*G54D20*G54D21*G54D23*G54D21*G54D23*G54D24*G54D21*G54D22*G54D21*G54D22*G54D21*G54D22*G54D21*G54D20*G54D21*G54D20*G54D22*G54D21*G54D20*G54D21*G54D20*G54D22*G54D20*G54D22*G54D21*G54D20*G54D21*G54D20*G54D22*G54D21*G54D20*G54D21*G54D20*G54D21*G54D22*G54D21*G54D22*G54D20*G54D21*G54D20*G54D21*G54D20*G54D21*G54D20*G54D21*M02*
