G04 start of page 6 for group -4063 idx -4063 *
G04 Title: (unknown), componentmask *
G04 Creator: pcb v4.0.2-g2d695f8b *
G04 CreationDate: Sat Jan 27 08:31:28 2018 UTC *
G04 For: zhenke *
G04 Format: Gerber/RS-274X *
G04 PCB-Dimensions (mil): 7480.31 7283.46 *
G04 PCB-Coordinate-Origin: lower left *
%MOIN*%
%FSLAX25Y25*%
%LNTOPMASK*%
%ADD54C,0.1240*%
%ADD53C,0.0910*%
%ADD52C,0.1040*%
%ADD51C,0.1060*%
%ADD50C,0.0810*%
%ADD49C,0.0960*%
%ADD48C,0.0860*%
%ADD47C,0.0001*%
G54D47*G36*
X207700Y74646D02*Y66046D01*
X216300D01*
Y74646D01*
X207700D01*
G37*
G54D48*X202000Y70346D03*
X192000D03*
X182000D03*
X172000D03*
Y40346D03*
X182000D03*
X162000Y70346D03*
Y40346D03*
X152000Y70346D03*
Y40346D03*
X142000Y70346D03*
Y40346D03*
G54D49*X127000Y19846D03*
G54D48*X192000Y40346D03*
X202000D03*
X212000D03*
G54D49*X227000Y19846D03*
G54D47*G36*
X207700Y166646D02*Y158046D01*
X216300D01*
Y166646D01*
X207700D01*
G37*
G54D48*X202000Y162346D03*
X192000D03*
X182000D03*
X172000D03*
X162000D03*
X152000D03*
X142000D03*
Y132346D03*
X152000D03*
X162000D03*
G54D49*X127000Y119846D03*
G54D48*X172000Y132346D03*
X182000D03*
X192000D03*
X202000D03*
X212000D03*
G54D49*X52000Y69846D03*
X77000Y44846D03*
X27000Y19846D03*
G54D47*G36*
X426950Y545896D02*Y537796D01*
X435050D01*
Y545896D01*
X426950D01*
G37*
G54D50*X431000Y551846D03*
G54D47*G36*
X409700Y567146D02*Y558546D01*
X418300D01*
Y567146D01*
X409700D01*
G37*
G54D48*X404000Y562846D03*
Y532846D03*
X414000D03*
X394000Y562846D03*
Y532846D03*
X384000Y562846D03*
Y532846D03*
X374000Y562846D03*
Y532846D03*
X364000Y562846D03*
Y532846D03*
X354000Y562846D03*
X344000D03*
X334000D03*
Y532846D03*
X344000D03*
X354000D03*
G54D47*G36*
X426950Y669896D02*Y661796D01*
X435050D01*
Y669896D01*
X426950D01*
G37*
G54D49*X527000Y719846D03*
X427000D03*
G54D50*X431000Y655846D03*
G54D47*G36*
X411700Y681146D02*Y672546D01*
X420300D01*
Y681146D01*
X411700D01*
G37*
G54D48*X406000Y676846D03*
Y646846D03*
G54D49*X727000Y519846D03*
G54D51*X627000D03*
G54D49*X527000D03*
X427000D03*
X327000D03*
G54D48*X416000Y646846D03*
G54D49*X727000Y619846D03*
G54D51*X627000D03*
G54D49*X527000D03*
X427000D03*
X702000Y669846D03*
X677000Y694846D03*
X727000Y719846D03*
G54D51*X627000D03*
G54D47*G36*
X569200Y29646D02*Y22046D01*
X576800D01*
Y29646D01*
X569200D01*
G37*
G54D48*X563000Y25846D03*
X553000D03*
G54D47*G36*
X579200Y29646D02*Y22046D01*
X586800D01*
Y29646D01*
X579200D01*
G37*
G54D48*X593000Y25846D03*
G54D49*X527000Y19846D03*
G54D47*G36*
X679300Y25046D02*Y14646D01*
X689700D01*
Y25046D01*
X679300D01*
G37*
G54D52*X644500Y19846D03*
G54D47*G36*
X695450Y23896D02*Y15796D01*
X703550D01*
Y23896D01*
X695450D01*
G37*
G54D53*X709500Y19846D03*
G54D49*X727000D03*
G54D51*X627000D03*
G54D49*X677000Y44846D03*
G54D47*G36*
X544950Y97896D02*Y89796D01*
X553050D01*
Y97896D01*
X544950D01*
G37*
G54D50*X549000Y83846D03*
G54D49*X527000Y319846D03*
Y219846D03*
Y119846D03*
G54D47*G36*
X680200Y133146D02*Y124546D01*
X688800D01*
Y133146D01*
X680200D01*
G37*
G54D49*X727000Y119846D03*
G54D48*X674500Y128846D03*
G54D51*X627000Y319846D03*
Y219846D03*
Y119846D03*
G54D49*X727000Y219846D03*
Y319846D03*
X702000Y69846D03*
X727000Y419846D03*
G54D51*X627000D03*
G54D49*X527000D03*
G54D47*G36*
X510200Y98146D02*Y89546D01*
X518800D01*
Y98146D01*
X510200D01*
G37*
G54D48*X504500Y93846D03*
X494500D03*
X484500D03*
X474500D03*
X464500D03*
X454500D03*
X444500D03*
G54D49*X427000Y119846D03*
Y419846D03*
Y319846D03*
Y219846D03*
G54D48*X444500Y63846D03*
X454500D03*
X464500D03*
X474500D03*
X484500D03*
X494500D03*
X504500D03*
X514500D03*
G54D47*G36*
X522950Y77896D02*Y69796D01*
X531050D01*
Y77896D01*
X522950D01*
G37*
G54D50*X527000Y83846D03*
G54D47*G36*
X580200Y74146D02*Y65546D01*
X588800D01*
Y74146D01*
X580200D01*
G37*
G54D48*X604500Y69846D03*
G54D49*X427000Y19846D03*
G54D48*X172000Y562346D03*
Y532346D03*
X162000Y562346D03*
Y532346D03*
X152000Y562346D03*
Y532346D03*
X142000Y562346D03*
Y532346D03*
G54D49*X127000Y519846D03*
X27000D03*
G54D47*G36*
X207700Y466646D02*Y458046D01*
X216300D01*
Y466646D01*
X207700D01*
G37*
G54D48*X202000Y462346D03*
X192000D03*
Y432346D03*
X202000D03*
X212000D03*
G54D47*G36*
X232950Y444896D02*Y436796D01*
X241050D01*
Y444896D01*
X232950D01*
G37*
G54D50*X237000Y450846D03*
G54D48*X182000Y462346D03*
Y432346D03*
X172000Y462346D03*
Y432346D03*
X162000Y462346D03*
Y432346D03*
X152000Y462346D03*
X142000D03*
Y432346D03*
X152000D03*
G54D47*G36*
X207700Y566646D02*Y558046D01*
X216300D01*
Y566646D01*
X207700D01*
G37*
G54D48*X202000Y562346D03*
X192000D03*
X182000D03*
Y532346D03*
X192000D03*
X202000D03*
X212000D03*
G54D47*G36*
X232950Y546896D02*Y538796D01*
X241050D01*
Y546896D01*
X232950D01*
G37*
G54D50*X237000Y552846D03*
G54D49*X227000Y519846D03*
X327000Y419846D03*
X227000D03*
X127000D03*
X27000D03*
G54D48*X396000Y676846D03*
X386000D03*
X376000D03*
X366000D03*
X356000D03*
X346000D03*
Y646846D03*
X356000D03*
X376000D03*
X386000D03*
X396000D03*
G54D49*X327000Y719846D03*
Y619846D03*
G54D48*X366000Y646846D03*
G54D47*G36*
X232950Y659896D02*Y651796D01*
X241050D01*
Y659896D01*
X232950D01*
G37*
G54D50*X237000Y665846D03*
G54D49*X227000Y619846D03*
G54D47*G36*
X205700Y680646D02*Y672046D01*
X214300D01*
Y680646D01*
X205700D01*
G37*
G54D48*X200000Y676346D03*
X190000D03*
X180000D03*
X170000D03*
Y646346D03*
X180000D03*
X190000D03*
X200000D03*
X160000Y676346D03*
Y646346D03*
X150000Y676346D03*
Y646346D03*
X210000D03*
G54D49*X227000Y719846D03*
G54D48*X140000Y676346D03*
Y646346D03*
G54D49*X127000Y719846D03*
Y619846D03*
X77000Y694846D03*
X52000Y669846D03*
X27000Y719846D03*
Y619846D03*
G54D47*G36*
X231950Y145896D02*Y137796D01*
X240050D01*
Y145896D01*
X231950D01*
G37*
G54D50*X236000Y151846D03*
G54D47*G36*
X231950Y54896D02*Y46796D01*
X240050D01*
Y54896D01*
X231950D01*
G37*
G54D50*X236000Y60846D03*
G54D47*G36*
X232950Y346896D02*Y338796D01*
X241050D01*
Y346896D01*
X232950D01*
G37*
G54D50*X237000Y352846D03*
G54D49*X227000Y119846D03*
G54D47*G36*
X231950Y246396D02*Y238296D01*
X240050D01*
Y246396D01*
X231950D01*
G37*
G54D50*X236000Y252346D03*
G54D47*G36*
X207700Y266646D02*Y258046D01*
X216300D01*
Y266646D01*
X207700D01*
G37*
G54D48*X212000Y232346D03*
G54D49*X227000Y219846D03*
X327000D03*
Y119846D03*
Y19846D03*
G54D48*X202000Y262346D03*
X192000D03*
X182000D03*
X172000D03*
X162000D03*
X152000D03*
X142000D03*
Y232346D03*
X152000D03*
X162000D03*
X172000D03*
G54D49*X127000Y219846D03*
G54D48*X182000Y232346D03*
X192000D03*
X202000D03*
G54D47*G36*
X207700Y366646D02*Y358046D01*
X216300D01*
Y366646D01*
X207700D01*
G37*
G54D48*X202000Y362346D03*
X192000D03*
X182000D03*
X172000D03*
X162000D03*
X152000D03*
X142000D03*
X152000Y332346D03*
X162000D03*
X172000D03*
X182000D03*
X192000D03*
X202000D03*
X212000D03*
G54D49*X227000Y319846D03*
G54D48*X142000Y332346D03*
G54D49*X27000Y319846D03*
X127000D03*
X327000D03*
X27000Y219846D03*
Y119846D03*
G54D54*X77000Y669846D03*
X677000D03*
Y69846D03*
X77000D03*
M02*
