G04 start of page 10 for group -4014 idx -4014 *
G04 Title: (unknown), bottompaste *
G04 Creator: pcb v4.0.2-g2d695f8b *
G04 CreationDate: Sat Jan 27 08:31:28 2018 UTC *
G04 For: zhenke *
G04 Format: Gerber/RS-274X *
G04 PCB-Dimensions (mil): 7480.31 7283.46 *
G04 PCB-Coordinate-Origin: lower left *
%MOIN*%
%FSLAX25Y25*%
%LNBOTTOMPASTE*%
%ADD67C,0.0001*%
G54D67*G36*
X238500Y222346D02*Y217346D01*
X243500D01*
Y222346D01*
X238500D01*
G37*
G36*
X246500D02*Y217346D01*
X251500D01*
Y222346D01*
X246500D01*
G37*
G36*
X680654Y200421D02*Y197272D01*
X687346D01*
Y200421D01*
X680654D01*
G37*
G36*
X670814D02*Y197272D01*
X677506D01*
Y200421D01*
X670814D01*
G37*
G36*
X624500Y34346D02*Y29346D01*
X629500D01*
Y34346D01*
X624500D01*
G37*
G36*
Y42346D02*Y37346D01*
X629500D01*
Y42346D01*
X624500D01*
G37*
G36*
X38500Y722846D02*Y717846D01*
X43500D01*
Y722846D01*
X38500D01*
G37*
G36*
X46500D02*Y717846D01*
X51500D01*
Y722846D01*
X46500D01*
G37*
G36*
X339500Y22346D02*Y17346D01*
X344500D01*
Y22346D01*
X339500D01*
G37*
G36*
X347500D02*Y17346D01*
X352500D01*
Y22346D01*
X347500D01*
G37*
G36*
X412500Y422346D02*Y417346D01*
X417500D01*
Y422346D01*
X412500D01*
G37*
G36*
X404500D02*Y417346D01*
X409500D01*
Y422346D01*
X404500D01*
G37*
G36*
X212500Y722346D02*Y717346D01*
X217500D01*
Y722346D01*
X212500D01*
G37*
G36*
X204500D02*Y717346D01*
X209500D01*
Y722346D01*
X204500D01*
G37*
G36*
X136500D02*Y717346D01*
X141500D01*
Y722346D01*
X136500D01*
G37*
G36*
X144500D02*Y717346D01*
X149500D01*
Y722346D01*
X144500D01*
G37*
G36*
X608500Y723346D02*Y718346D01*
X613500D01*
Y723346D01*
X608500D01*
G37*
G36*
X600500D02*Y718346D01*
X605500D01*
Y723346D01*
X600500D01*
G37*
G36*
X513000Y722346D02*Y717346D01*
X518000D01*
Y722346D01*
X513000D01*
G37*
G36*
X505000D02*Y717346D01*
X510000D01*
Y722346D01*
X505000D01*
G37*
G36*
X412500Y721846D02*Y716846D01*
X417500D01*
Y721846D01*
X412500D01*
G37*
G36*
X404500D02*Y716846D01*
X409500D01*
Y721846D01*
X404500D01*
G37*
G36*
X313000Y722346D02*Y717346D01*
X318000D01*
Y722346D01*
X313000D01*
G37*
G36*
X305000D02*Y717346D01*
X310000D01*
Y722346D01*
X305000D01*
G37*
G36*
X711500D02*Y717346D01*
X716500D01*
Y722346D01*
X711500D01*
G37*
G36*
X703500D02*Y717346D01*
X708500D01*
Y722346D01*
X703500D01*
G37*
G36*
X110500Y622346D02*Y617346D01*
X115500D01*
Y622346D01*
X110500D01*
G37*
G36*
X102500D02*Y617346D01*
X107500D01*
Y622346D01*
X102500D01*
G37*
G36*
X39500D02*Y617346D01*
X44500D01*
Y622346D01*
X39500D01*
G37*
G36*
X47500D02*Y617346D01*
X52500D01*
Y622346D01*
X47500D01*
G37*
G36*
X237500D02*Y617346D01*
X242500D01*
Y622346D01*
X237500D01*
G37*
G36*
X245500D02*Y617346D01*
X250500D01*
Y622346D01*
X245500D01*
G37*
G36*
X311500Y621846D02*Y616846D01*
X316500D01*
Y621846D01*
X311500D01*
G37*
G36*
X303500D02*Y616846D01*
X308500D01*
Y621846D01*
X303500D01*
G37*
G36*
X413500D02*Y616846D01*
X418500D01*
Y621846D01*
X413500D01*
G37*
G36*
X405500D02*Y616846D01*
X410500D01*
Y621846D01*
X405500D01*
G37*
G36*
X711500Y622346D02*Y617346D01*
X716500D01*
Y622346D01*
X711500D01*
G37*
G36*
X703500D02*Y617346D01*
X708500D01*
Y622346D01*
X703500D01*
G37*
G36*
X608500D02*Y617346D01*
X613500D01*
Y622346D01*
X608500D01*
G37*
G36*
X600500D02*Y617346D01*
X605500D01*
Y622346D01*
X600500D01*
G37*
G36*
X512500D02*Y617346D01*
X517500D01*
Y622346D01*
X512500D01*
G37*
G36*
X504500D02*Y617346D01*
X509500D01*
Y622346D01*
X504500D01*
G37*
G36*
X608500Y522346D02*Y517346D01*
X613500D01*
Y522346D01*
X608500D01*
G37*
G36*
X600500D02*Y517346D01*
X605500D01*
Y522346D01*
X600500D01*
G37*
G36*
X711500D02*Y517346D01*
X716500D01*
Y522346D01*
X711500D01*
G37*
G36*
X703500D02*Y517346D01*
X708500D01*
Y522346D01*
X703500D01*
G37*
G36*
X110500D02*Y517346D01*
X115500D01*
Y522346D01*
X110500D01*
G37*
G36*
X102500D02*Y517346D01*
X107500D01*
Y522346D01*
X102500D01*
G37*
G36*
X39500D02*Y517346D01*
X44500D01*
Y522346D01*
X39500D01*
G37*
G36*
X47500D02*Y517346D01*
X52500D01*
Y522346D01*
X47500D01*
G37*
G36*
X313500D02*Y517346D01*
X318500D01*
Y522346D01*
X313500D01*
G37*
G36*
X305500D02*Y517346D01*
X310500D01*
Y522346D01*
X305500D01*
G37*
G36*
X238500D02*Y517346D01*
X243500D01*
Y522346D01*
X238500D01*
G37*
G36*
X246500D02*Y517346D01*
X251500D01*
Y522346D01*
X246500D01*
G37*
G36*
X512500D02*Y517346D01*
X517500D01*
Y522346D01*
X512500D01*
G37*
G36*
X504500D02*Y517346D01*
X509500D01*
Y522346D01*
X504500D01*
G37*
G36*
X424500Y509346D02*Y504346D01*
X429500D01*
Y509346D01*
X424500D01*
G37*
G36*
Y501346D02*Y496346D01*
X429500D01*
Y501346D01*
X424500D01*
G37*
G36*
X608500Y422346D02*Y417346D01*
X613500D01*
Y422346D01*
X608500D01*
G37*
G36*
X600500D02*Y417346D01*
X605500D01*
Y422346D01*
X600500D01*
G37*
G36*
X512500D02*Y417346D01*
X517500D01*
Y422346D01*
X512500D01*
G37*
G36*
X504500D02*Y417346D01*
X509500D01*
Y422346D01*
X504500D01*
G37*
G36*
X313000D02*Y417346D01*
X318000D01*
Y422346D01*
X313000D01*
G37*
G36*
X305000D02*Y417346D01*
X310000D01*
Y422346D01*
X305000D01*
G37*
G36*
X238500D02*Y417346D01*
X243500D01*
Y422346D01*
X238500D01*
G37*
G36*
X246500D02*Y417346D01*
X251500D01*
Y422346D01*
X246500D01*
G37*
G36*
X110500D02*Y417346D01*
X115500D01*
Y422346D01*
X110500D01*
G37*
G36*
X102500D02*Y417346D01*
X107500D01*
Y422346D01*
X102500D01*
G37*
G36*
X38500D02*Y417346D01*
X43500D01*
Y422346D01*
X38500D01*
G37*
G36*
X46500D02*Y417346D01*
X51500D01*
Y422346D01*
X46500D01*
G37*
G36*
X38500Y322346D02*Y317346D01*
X43500D01*
Y322346D01*
X38500D01*
G37*
G36*
X46500D02*Y317346D01*
X51500D01*
Y322346D01*
X46500D01*
G37*
G36*
X110500D02*Y317346D01*
X115500D01*
Y322346D01*
X110500D01*
G37*
G36*
X102500D02*Y317346D01*
X107500D01*
Y322346D01*
X102500D01*
G37*
G36*
X237500D02*Y317346D01*
X242500D01*
Y322346D01*
X237500D01*
G37*
G36*
X245500D02*Y317346D01*
X250500D01*
Y322346D01*
X245500D01*
G37*
G36*
X312500D02*Y317346D01*
X317500D01*
Y322346D01*
X312500D01*
G37*
G36*
X304500D02*Y317346D01*
X309500D01*
Y322346D01*
X304500D01*
G37*
G36*
X412500D02*Y317346D01*
X417500D01*
Y322346D01*
X412500D01*
G37*
G36*
X404500D02*Y317346D01*
X409500D01*
Y322346D01*
X404500D01*
G37*
G36*
X512500D02*Y317346D01*
X517500D01*
Y322346D01*
X512500D01*
G37*
G36*
X504500D02*Y317346D01*
X509500D01*
Y322346D01*
X504500D01*
G37*
G36*
X608500D02*Y317346D01*
X613500D01*
Y322346D01*
X608500D01*
G37*
G36*
X600500D02*Y317346D01*
X605500D01*
Y322346D01*
X600500D01*
G37*
G36*
X711500D02*Y317346D01*
X716500D01*
Y322346D01*
X711500D01*
G37*
G36*
X703500D02*Y317346D01*
X708500D01*
Y322346D01*
X703500D01*
G37*
G36*
X38500Y222346D02*Y217346D01*
X43500D01*
Y222346D01*
X38500D01*
G37*
G36*
X46500D02*Y217346D01*
X51500D01*
Y222346D01*
X46500D01*
G37*
G36*
X110500D02*Y217346D01*
X115500D01*
Y222346D01*
X110500D01*
G37*
G36*
X102500D02*Y217346D01*
X107500D01*
Y222346D01*
X102500D01*
G37*
G36*
X312500D02*Y217346D01*
X317500D01*
Y222346D01*
X312500D01*
G37*
G36*
X304500D02*Y217346D01*
X309500D01*
Y222346D01*
X304500D01*
G37*
G36*
X412500D02*Y217346D01*
X417500D01*
Y222346D01*
X412500D01*
G37*
G36*
X404500D02*Y217346D01*
X409500D01*
Y222346D01*
X404500D01*
G37*
G36*
X512500D02*Y217346D01*
X517500D01*
Y222346D01*
X512500D01*
G37*
G36*
X504500D02*Y217346D01*
X509500D01*
Y222346D01*
X504500D01*
G37*
G36*
X608500D02*Y217346D01*
X613500D01*
Y222346D01*
X608500D01*
G37*
G36*
X600500D02*Y217346D01*
X605500D01*
Y222346D01*
X600500D01*
G37*
G36*
X711500D02*Y217346D01*
X716500D01*
Y222346D01*
X711500D01*
G37*
G36*
X703500D02*Y217346D01*
X708500D01*
Y222346D01*
X703500D01*
G37*
G36*
X37500Y122346D02*Y117346D01*
X42500D01*
Y122346D01*
X37500D01*
G37*
G36*
X45500D02*Y117346D01*
X50500D01*
Y122346D01*
X45500D01*
G37*
G36*
X110500D02*Y117346D01*
X115500D01*
Y122346D01*
X110500D01*
G37*
G36*
X102500D02*Y117346D01*
X107500D01*
Y122346D01*
X102500D01*
G37*
G36*
X238500D02*Y117346D01*
X243500D01*
Y122346D01*
X238500D01*
G37*
G36*
X246500D02*Y117346D01*
X251500D01*
Y122346D01*
X246500D01*
G37*
G36*
X311500D02*Y117346D01*
X316500D01*
Y122346D01*
X311500D01*
G37*
G36*
X303500D02*Y117346D01*
X308500D01*
Y122346D01*
X303500D01*
G37*
G36*
X412500D02*Y117346D01*
X417500D01*
Y122346D01*
X412500D01*
G37*
G36*
X404500D02*Y117346D01*
X409500D01*
Y122346D01*
X404500D01*
G37*
G36*
X524500Y134346D02*Y129346D01*
X529500D01*
Y134346D01*
X524500D01*
G37*
G36*
Y142346D02*Y137346D01*
X529500D01*
Y142346D01*
X524500D01*
G37*
G36*
X608500Y122346D02*Y117346D01*
X613500D01*
Y122346D01*
X608500D01*
G37*
G36*
X600500D02*Y117346D01*
X605500D01*
Y122346D01*
X600500D01*
G37*
G36*
X711500D02*Y117346D01*
X716500D01*
Y122346D01*
X711500D01*
G37*
G36*
X703500D02*Y117346D01*
X708500D01*
Y122346D01*
X703500D01*
G37*
G36*
X238500Y22346D02*Y17346D01*
X243500D01*
Y22346D01*
X238500D01*
G37*
G36*
X246500D02*Y17346D01*
X251500D01*
Y22346D01*
X246500D01*
G37*
G36*
X37500D02*Y17346D01*
X42500D01*
Y22346D01*
X37500D01*
G37*
G36*
X45500D02*Y17346D01*
X50500D01*
Y22346D01*
X45500D01*
G37*
G36*
X110500D02*Y17346D01*
X115500D01*
Y22346D01*
X110500D01*
G37*
G36*
X102500D02*Y17346D01*
X107500D01*
Y22346D01*
X102500D01*
G37*
G36*
X440500D02*Y17346D01*
X445500D01*
Y22346D01*
X440500D01*
G37*
G36*
X448500D02*Y17346D01*
X453500D01*
Y22346D01*
X448500D01*
G37*
G36*
X512500D02*Y17346D01*
X517500D01*
Y22346D01*
X512500D01*
G37*
G36*
X504500D02*Y17346D01*
X509500D01*
Y22346D01*
X504500D01*
G37*
G36*
X724500Y29846D02*Y24846D01*
X729500D01*
Y29846D01*
X724500D01*
G37*
G36*
Y37846D02*Y32846D01*
X729500D01*
Y37846D01*
X724500D01*
G37*
G36*
X711500Y422346D02*Y417346D01*
X716500D01*
Y422346D01*
X711500D01*
G37*
G36*
X703500D02*Y417346D01*
X708500D01*
Y422346D01*
X703500D01*
G37*
M02*
